<svg xmlns="http://www.w3.org/2000/svg" xmlns:xlink="http://www.w3.org/1999/xlink" xmlns:lucid="lucid" width="2245.76" height="1345.74"><g transform="translate(453.1258734877873 242.77682549870406)" lucid:page-tab-id="Q7ACVH81rwBB"><path d="M-500-500h2500v2000H-500z" fill="#fff"/><path d="M-432.13-219.78a2 2 0 0 1 2-2h2199.76a2 2 0 0 1 2 2v1299.74a2 2 0 0 1-2 2H-430.13a2 2 0 0 1-2-2z" stroke="#4285f4" stroke-width="2" fill="#fff"/><path d="M-380.4-193.7c.02-2.27.84-4.2 2.48-5.8 1.63-1.6 3.6-2.38 5.86-2.37 1.06 0 2.07.18 3.04.57.96.4 1.84.95 2.57 1.7l-1.63 1.56c-1.13-1.08-2.44-1.6-3.98-1.6-1.06 0-2.07.27-3 .8-.9.54-1.62 1.27-2.15 2.2-.54.93-.77 1.92-.75 3-.02 1.05.2 2.04.74 2.97.52.93 1.23 1.66 2.15 2.2.92.53 1.93.8 3 .8.77.03 1.5-.1 2.22-.38.72-.28 1.34-.7 1.9-1.26.73-.8 1.14-1.74 1.2-2.82h-5.33v-2.3h7.48c.1.45.13.9.13 1.38.07 2-.6 3.75-1.95 5.23-.74.76-1.6 1.34-2.58 1.74-.98.4-2.02.6-3.08.55-2.27 0-4.23-.8-5.86-2.4-1.64-1.58-2.46-3.52-2.5-5.8zm0 0M-358.37-196.05c-1.45 0-2.7.52-3.73 1.55-1.03 1.03-1.54 2.27-1.54 3.72 0 1.46.53 2.7 1.56 3.73 1.04 1.02 2.28 1.54 3.73 1.54 1.45 0 2.7-.53 3.73-1.56 1.03-1.03 1.54-2.27 1.54-3.72.02-.95-.2-1.83-.67-2.66-.46-.82-1.13-1.46-1.95-1.93-.83-.47-1.73-.7-2.67-.68zm0 8.45c-.56 0-1.06-.16-1.54-.45-.5-.3-.87-.68-1.12-1.17-.25-.5-.37-1.02-.34-1.57 0-.82.3-1.52.87-2.1.6-.6 1.3-.88 2.13-.88.82 0 1.56.3 2.14.87.57.58.87 1.28.87 2.1.02.57-.1 1.1-.34 1.58-.26.5-.63.9-1.1 1.18-.5.3-1.02.44-1.57.45zM-346.8-196.05c-1.45 0-2.7.53-3.73 1.56-1.04 1.04-1.54 2.28-1.54 3.73 0 1.45.53 2.7 1.56 3.72s2.27 1.54 3.72 1.54c1.45-.02 2.7-.53 3.72-1.56 1.04-1.03 1.55-2.27 1.55-3.72 0-.95-.22-1.84-.7-2.66-.5-.82-1.1-1.47-1.94-1.94-.82-.46-1.72-.7-2.66-.67zm0 8.45c-.56 0-1.08-.16-1.57-.45-.48-.3-.83-.68-1.08-1.17-.25-.5-.4-1.02-.37-1.57 0-.82.32-1.52.9-2.1.57-.6 1.3-.88 2.12-.88.82 0 1.54.3 2.1.87.6.58.9 1.28.9 2.1 0 .57-.1 1.1-.36 1.58-.25.5-.62.9-1.1 1.18-.5.3-1 .44-1.54.45zM-332.64-195.73v.86h-.06c-.37-.4-.8-.7-1.27-.9-.48-.2-1-.3-1.52-.28-1.4.06-2.6.6-3.58 1.62-.96 1.02-1.47 2.23-1.47 3.64 0 1.42.5 2.64 1.47 3.66.97 1 2.2 1.55 3.6 1.62.52 0 1.03-.1 1.5-.3.5-.2.93-.5 1.28-.9h.06v.76c0 2-1.08 3.1-2.82 3.1-.58-.03-1.1-.2-1.6-.55-.48-.35-.82-.8-1.03-1.34l-2 .84c.4.95 1.02 1.7 1.88 2.28.85.56 1.8.84 2.82.83 2.72 0 5-1.58 5-5.47v-9.46h-2.2zm-2.66 8.14c-.56 0-1.06-.15-1.52-.44-.46-.3-.83-.68-1.08-1.17-.26-.5-.35-1-.33-1.56-.02-.55.07-1.07.33-1.56.25-.5.62-.9 1.08-1.18.46-.3.96-.45 1.52-.47.55.03 1.03.2 1.5.5.45.3.8.68 1.03 1.17.23.48.34 1 .3 1.54.02.53-.07 1.04-.3 1.52-.23.48-.6.87-1.04 1.16-.45.3-.97.46-1.5.5zm0 0M-328.84-201.3h2.32v15.47h-2.32zM-320.17-187.6c-.55.03-1.06-.1-1.52-.4-.45-.3-.8-.68-1.02-1.2l7.06-2.9-.25-.6c-.34-.97-.9-1.77-1.74-2.4-.83-.6-1.75-.92-2.78-.95-.92 0-1.8.24-2.6.7-.8.5-1.4 1.14-1.84 1.96-.44.82-.62 1.7-.58 2.62-.02.94.2 1.82.67 2.65.46.82 1.1 1.46 1.93 1.93.83.47 1.7.7 2.65.7.88 0 1.73-.2 2.5-.63.8-.4 1.42-1 1.9-1.72l-1.8-1.2c-.27.46-.64.8-1.1 1.07-.46.26-.94.4-1.47.4zm-.18-6.4c.4-.06.8.03 1.17.23.37.2.64.5.83.87l-4.72 2c-.04-.52.05-1.02.28-1.5.24-.46.56-.84 1-1.13.43-.3.92-.45 1.45-.48zm0 0M-311.08-192.98c-.03-1.33.27-2.6.94-3.75.66-1.17 1.56-2.08 2.74-2.75 1.17-.66 2.4-.98 3.74-.96 1.02-.02 1.98.18 2.9.58.92.4 1.7 1 2.37 1.76l-1.28 1.23c-.48-.6-1.08-1.06-1.8-1.38-.7-.32-1.42-.47-2.2-.43-1-.03-1.98.22-2.85.73-.88.5-1.57 1.2-2.05 2.1-.48.9-.7 1.86-.67 2.87-.04 1 .2 1.96.7 2.84.48.9 1.15 1.58 2.02 2.1.87.5 1.82.74 2.83.72.85 0 1.65-.17 2.4-.52.77-.35 1.44-.84 2-1.48l1.28 1.28c-1.04 1.16-2.28 1.93-3.8 2.3-1.5.37-3 .28-4.44-.27-1.44-.55-2.64-1.47-3.5-2.74-.9-1.28-1.32-2.7-1.32-4.24zm0 0M-296.57-185.83v-14.3h1.84v14.3zM-283.3-190.72c0 1.4-.48 2.57-1.47 3.55-1 .98-2.2 1.47-3.57 1.47-1.38 0-2.55-.5-3.54-1.47-1-.98-1.47-2.16-1.47-3.55 0-1.4.48-2.57 1.47-3.55 1-.98 2.16-1.47 3.54-1.47s2.58.5 3.57 1.47c1 .98 1.47 2.16 1.47 3.55zm-1.84 0c.07-.73-.12-1.4-.5-2-.4-.62-.97-1.05-1.66-1.28-.7-.24-1.38-.24-2.07 0-.7.23-1.25.66-1.64 1.27-.4.6-.6 1.28-.54 2 0 .9.33 1.65.95 2.28.63.62 1.4.94 2.3.94.88 0 1.64-.33 2.26-.95.62-.63.94-1.4.94-2.27zM-275-185.83v-1.36h-.1c-.36.53-.8.94-1.35 1.23-.55.3-1.15.45-1.77.46-2.53 0-3.72-1.7-3.72-4.12v-6h1.84v5.7c0 2 1 2.73 2.4 2.73.77-.06 1.4-.38 1.92-.96.5-.58.7-1.26.67-2.02v-5.4h1.83v9.78h-1.75zM-271.75-190.72c-.07-1.35.36-2.54 1.26-3.55.9-1 2.03-1.56 3.4-1.66.66-.02 1.28.12 1.88.42.6.28 1.08.7 1.45 1.25h.06l-.07-1.36v-4.52h1.84v14.3h-1.77v-1.37h-.07c-.37.55-.86.97-1.45 1.27-.6.3-1.22.44-1.9.42-1.35-.1-2.47-.66-3.37-1.68-.9-1-1.32-2.2-1.25-3.54zm8.07 0c.1-.73-.07-1.4-.46-2.02-.4-.62-.92-1.05-1.6-1.3-.7-.23-1.4-.23-2.08 0-.7.25-1.24.68-1.63 1.3-.4.62-.56 1.3-.47 2.02-.1.73.07 1.4.47 2.02.4.62.94 1.05 1.63 1.3.7.23 1.38.23 2.07 0 .7-.25 1.22-.68 1.6-1.3.4-.62.56-1.3.47-2.02zM-256.9-185.83v-14.3h4.88c.78 0 1.52.16 2.2.53.7.37 1.23.9 1.64 1.56.4.67.6 1.4.62 2.17-.02.78-.2 1.5-.62 2.17-.4.67-.94 1.2-1.63 1.56-.7.37-1.44.55-2.22.52h-3v5.8h-1.85zm4.9-7.55c.7 0 1.3-.24 1.77-.73.5-.5.74-1.08.74-1.77 0-.7-.24-1.28-.73-1.76-.48-.5-1.08-.73-1.77-.73h-3.13v4.98h3.1zM-246.27-185.83v-14.3h1.84v14.3zM-242.84-188.8c0-2.2 2-3.4 4.3-3.4.94-.02 1.84.18 2.66.6v-.28c-.04-.58-.25-1.1-.64-1.53-.4-.45-.85-.73-1.42-.85-.58-.12-1.13-.05-1.66.2-.53.26-.92.65-1.17 1.17l-1.68-.72c.46-.88 1.15-1.54 2.04-1.96.9-.42 1.83-.53 2.82-.3 1 .2 1.8.7 2.44 1.47.64.78.97 1.66 1 2.66v5.9h-1.74v-1.35h-.1c-.33.55-.8.97-1.37 1.27-.57.3-1.2.44-1.84.42-.6.04-1.18-.06-1.76-.34-.57-.28-1-.68-1.35-1.2-.36-.54-.54-1.12-.54-1.75zm7-1.24c-.72-.47-1.48-.7-2.34-.64-1.93 0-2.7 1-2.7 1.93.06.5.3.88.68 1.2.4.3.83.4 1.3.36.82 0 1.5-.26 2.08-.82.58-.55.9-1.22.94-2.02zM-231.48-188.8v-5.13h-1.73v-1.68h1.72v-3h1.84v3h2.4v1.67h-2.4v4.98c0 1.1.48 1.6 1.33 1.6.3 0 .54-.04.82-.16l.64 1.57c-.48.2-.96.28-1.47.26-.58.07-1.13-.04-1.66-.3-.53-.28-.92-.67-1.2-1.2-.28-.5-.4-1.05-.32-1.64zM-219.52-199.94l-.62 1.58c-.28-.13-.53-.18-.83-.16-.3-.03-.58.04-.85.18-.28.15-.5.36-.62.63-.14.26-.2.55-.16.85v1.24h2.46v1.67h-2.56v8.1h-1.84v-8.1h-1.84v-1.68h1.84v-1.3c-.02-.62.12-1.2.44-1.73s.76-.94 1.3-1.22c.56-.28 1.14-.4 1.76-.35.53-.03 1.03.06 1.52.26zM-209.52-190.72c0 1.4-.48 2.57-1.47 3.55-.98.98-2.17 1.47-3.55 1.47s-2.58-.5-3.57-1.47c-1-.98-1.47-2.16-1.47-3.55 0-1.4.5-2.57 1.48-3.55 1-.98 2.2-1.47 3.57-1.47 1.38 0 2.57.5 3.56 1.47 1 .98 1.48 2.16 1.48 3.55zm-1.84 0c.07-.73-.1-1.4-.5-2-.4-.62-.97-1.05-1.66-1.28-.7-.24-1.38-.24-2.07 0-.68.23-1.25.66-1.65 1.27-.4.6-.57 1.28-.5 2-.07.74.1 1.4.5 2.02.4.6.97 1.02 1.66 1.26.7.24 1.4.24 2.08 0 .7-.24 1.27-.66 1.66-1.27.4-.62.57-1.3.5-2.02zM-208.04-185.83v-9.78h1.77v1.6h.06c.25-.56.66-1 1.17-1.33.5-.33 1.08-.5 1.68-.52.48-.02.94.06 1.38.24l-.72 1.7c-.3-.1-.63-.15-.98-.13-.48.02-.9.16-1.33.42-.42.26-.75.6-.95 1.04-.2.44-.32.9-.28 1.38v5.35zm0 0M-200.98-195.6h1.74v1.35h.1c.34-.5.78-.9 1.3-1.2.54-.3 1.1-.46 1.7-.48.68-.05 1.27.1 1.85.44.58.35 1 .83 1.25 1.45.37-.6.88-1.05 1.47-1.4.6-.32 1.27-.48 1.96-.48 2.4 0 3.5 1.7 3.5 4.1v6h-1.85v-5.7c0-2-.78-2.72-2.18-2.72-1.4 0-2.48 1.5-2.48 3v5.4h-1.84v-5.7c0-2-.8-2.7-2.2-2.7-1.4 0-2.5 1.5-2.5 3v5.4H-201v-9.76z" fill="#737373"/><path d="M-397.75-185.82l-2.87 4.98h-7.52c-.35 0-.65-.08-.95-.25-.3-.15-.52-.38-.68-.67l-6.07-10.6c-.16-.3-.25-.6-.25-.94 0-.34.1-.65.25-.94l2.3-4.05 2.85 5 4.33 7.48zm0 0" fill="#ffcc40"/><path d="M-388.25-192.38l-6.1 10.6c-.16.3-.4.53-.7.7-.28.16-.58.24-.93.24h-4.64l2.87-4.98 4.32-7.5-4.32-7.47h5.68l3.77 6.57c.17.28.28.6.28.92 0 .32-.07.63-.23.92z" fill="#da4437"/><path d="M-392.07-200.8h-14.3l-4.3 7.5-2.88-5 3.77-6.54c.16-.3.4-.52.7-.7.3-.15.6-.24.94-.24h12.16c.35 0 .65.1.94.25.3.17.53.4.7.7z" fill="#4284f3"/><path d="M-397.75-200.8l4.32 7.5-4.32 7.48h-8.62l-4.3-7.5 4.3-7.47z" fill="#dfdfdf"/><path d="M-405.8-193.3c0-2.07 1.68-3.75 3.75-3.75 2.07 0 3.75 1.68 3.75 3.74 0 2.06-1.68 3.74-3.75 3.74-2.07 0-3.75-1.68-3.75-3.75z" fill="#fff"/><path d="M-409.78-204.68c.16-.3.4-.52.7-.7.3-.15.6-.24.94-.24h12.16c.35 0 .65.1.94.25.3.17.53.4.7.7l2.27 3.88-2.28-4.04c-.16-.3-.4-.52-.7-.7-.28-.15-.58-.24-.93-.24h-12.16c-.35 0-.65.1-.95.25-.3.17-.52.4-.68.7l-3.77 6.54v.1z" fill="#fff" fill-opacity=".2"/><path d="M-410.68-193.3l4.3-7.5H-392l-.07-.15h-14.27l-4.3 7.48" fill="#1a237e" fill-opacity=".2"/><path d="M-415.85-194.08l2.3-4 2.88 5 4.3 7.48h8.55l.07-.16h-8.62l-4.3-7.55-2.88-5-2.32 4c-.2.3-.26.64-.23 1 .02-.28.1-.54.25-.78zm0 0" fill="#fff" fill-opacity=".2"/><path d="M-400.53-181h-7.62c-.34 0-.64-.08-.94-.25-.3-.16-.52-.4-.68-.68l-6.07-10.6c-.14-.26-.23-.54-.25-.85-.03.36.07.7.25 1l6.07 10.6c.16.3.4.53.7.7.3.16.6.24.94.24h7.52z" fill="#be360c"/><path d="M-393.33-193.3l-4.33-7.5h-.1l4.33 7.5zM-388.25-192.53l-6.1 10.6c-.16.3-.4.52-.7.68-.28.17-.58.25-.93.25h-4.55l-.1.16h4.65c.35 0 .65-.08.94-.25.3-.15.53-.38.7-.67l6.1-10.6c.17-.3.24-.64.22-1-.02.3-.1.58-.23.84zm0 0" fill="#3e2723"/><path d="M-392.07-200.63l3.77 6.56c.14.26.23.54.26.84.02-.35-.07-.68-.26-1l-3.77-6.56h-5.68l.1.17M-397.75-185.66l4.42-7.65h-.1l-4.32 7.48-2.87 4.98h.1z" fill="#fff"/><path d="M-388.25-194.23l-3.82-6.56-2.28-4.04c-.16-.3-.4-.52-.7-.7-.28-.15-.58-.24-.93-.24h-12.16c-.35 0-.65.1-.95.25-.3.17-.52.4-.68.7l-6.07 10.6c-.16.3-.25.6-.25.93 0 .33.1.64.25.93l6.07 10.6c.16.3.4.52.7.68.3.18.6.26.94.26h12.16c.35 0 .65-.08.94-.25.3-.15.53-.38.7-.67l6.1-10.6c.15-.3.24-.6.24-.93 0-.33-.1-.64-.25-.93z" fill="url(#a)"/><path d="M-132.7 435h103.94a6 6 0 0 0 6-6V274.08a6 6 0 0 1 6-6h74.54" stroke="#3a414a" fill="none"/><path d="M-132.7 435.48h-.5v-.95h.5z" stroke="#3a414a" stroke-width=".05" fill="#3a414a"/><path d="M72.54 268.07l-14.26 4.64v-9.26z" stroke="#3a414a" fill="#3a414a"/><path d="M-132.7 435h103.94a6 6 0 0 1 6 6v158.53a6 6 0 0 0 6 6h74.54" stroke="#3a414a" fill="none"/><path d="M-132.7 435.48h-.5v-.95h.5z" stroke="#3a414a" stroke-width=".05" fill="#3a414a"/><path d="M72.54 605.53l-14.26 4.63v-9.27z" stroke="#3a414a" fill="#3a414a"/><path d="M-93.37-9.3h224.72a6 6 0 0 1 6 6v203.78" stroke="#3a414a" fill="none"/><path d="M-93.36-8.83h-.5v-.95h.5z" stroke="#3a414a" stroke-width=".05" fill="#3a414a"/><path d="M137.35 215.25l-4.63-14.27H142z" stroke="#3a414a" fill="#3a414a"/><use xlink:href="#b" transform="matrix(1,0,0,1,35.60923126555533,-5.305862406063968) translate(0 14.222222222222223)"/><use xlink:href="#c" transform="matrix(1,0,0,1,35.60923126555533,-5.305862406063968) translate(48.296296296296305 14.222222222222223)"/><path d="M530.07 910.02h-382.7a6 6 0 0 1-6-6V753.46" stroke="#3a414a" fill="none"/><path d="M530.57 910.5h-.5v-.96h.5z" stroke="#3a414a" stroke-width=".05" fill="#3a414a"/><path d="M141.36 738.7l4.63 14.26h-9.28z" stroke="#3a414a" fill="#3a414a"/><path d="M696 176.25a6 6 0 0 1 6-6h506.72a6 6 0 0 1 6 6v553.83a6 6 0 0 1-6 6H702a6 6 0 0 1-6-6z" stroke="#4285f4" stroke-width="2" fill-opacity="0"/><path d="M776.4 445.6v16.8c2.77 4.78 6.2 8.27 10.94 11.12v-27.9z" stroke="#000" stroke-opacity="0" fill="#aecbfa"/><path d="M796.62 430.12v48.16c2.47.3 4.58.43 7.07.4 2.22.13 4.13.13 6.36 0V430.1z" stroke="#000" stroke-opacity="0" fill="#669df6"/><path d="M820.68 452.27v21c4.78-3.06 8.17-6.67 10.88-11.62v-9.38z" stroke="#000" stroke-opacity="0" fill="#aecbfa"/><path d="M846.94 480.86l-9.06 9.06-.04.03c-1.04 1.08-1.04 2.8.04 3.83l22.6 22.6c1.05 1.04 2.75 1.04 3.8 0l9.13-9.13c1.04-1.04 1.04-2.75 0-3.78l-22.6-22.6-.04-.05c-1.08-1.04-2.78-1.04-3.82.04" stroke="#000" stroke-opacity="0" fill="#4285f4"/><path d="M803.78 389.16c-31.8 0-57.6 25.8-57.6 57.6s25.8 57.6 57.6 57.6 57.6-25.8 57.6-57.6-25.8-57.6-57.6-57.6m0 100.46c-23.6-.12-42.74-19.24-42.74-42.86.12-23.6 19.24-42.74 42.86-42.74 23.62.12 42.62 19.13 42.74 42.74 0 23.62-19.13 42.74-42.74 42.86h-.12" stroke="#000" stroke-opacity="0" fill="#669df6"/><path d="M202.66 268.07h239.92a6 6 0 0 1 6 6v173.1a6 6 0 0 0 6 6h224.04" stroke="#3a414a" fill="none"/><path d="M202.67 268.55h-.5v-.95h.5z" stroke="#3a414a" stroke-width=".05" fill="#3a414a"/><path d="M693.38 453.16l-14.26 4.64v-9.27z" stroke="#3a414a" fill="#3a414a"/><path d="M202.66 605.53h239.92a6 6 0 0 0 6-6V459.16a6 6 0 0 1 6-6h224.04" stroke="#3a414a" fill="none"/><path d="M202.67 606h-.5v-.95h.5z" stroke="#3a414a" stroke-width=".05" fill="#3a414a"/><path d="M693.38 453.16l-14.26 4.64v-9.27z" stroke="#3a414a" fill="#3a414a"/><path d="M-323.24-107.38a6 6 0 0 1 6-6h216.37a6 6 0 0 1 6 6V88.77a6 6 0 0 1-6 6h-216.37a6 6 0 0 1-6-6z" stroke="#4285f4" stroke-width="2" fill-opacity="0"/><path d="M-273.05-67.5h128v44.67h-128V-67.5z" stroke="#000" stroke-opacity="0" fill="#aecbfa"/><path d="M-157.85-67.5h12.8v44.67h-12.8V-67.5z" stroke="#000" stroke-opacity="0" fill="#669df6"/><path d="M-145.05-67.5h-12.8v44.67l12.8-44.67z" stroke="#000" stroke-opacity="0" fill="#4285f4"/><path d="M-273.05-67.5h12.8v44.67h-12.8V-67.5z" stroke="#000" stroke-opacity="0" fill="#669df6"/><path d="M-247.45-48.33h38.4v6.38h-38.4v-6.38zM-180.25-54.75c6.4 0 9.6 3.2 9.6 9.6 0 6.37-3.2 9.57-9.6 9.57-6.4 0-9.6-3.2-9.6-9.58 0-6.4 3.2-9.6 9.6-9.6z" stroke="#000" stroke-opacity="0" fill="#fff"/><path d="M-273.05-10.08h128V34.6h-128v-44.68z" stroke="#000" stroke-opacity="0" fill="#aecbfa"/><path d="M-157.85-10.08h12.8V34.6h-12.8v-44.68z" stroke="#000" stroke-opacity="0" fill="#669df6"/><path d="M-145.05-10.08h-12.8V34.6l12.8-44.68z" stroke="#000" stroke-opacity="0" fill="#4285f4"/><path d="M-273.05-10.08h12.8V34.6h-12.8v-44.68z" stroke="#000" stroke-opacity="0" fill="#669df6"/><path d="M-247.45 9h38.4v6.37h-38.4V9zM-180.25 2.67c6.4 0 9.6 3.2 9.6 9.6 0 6.38-3.2 9.58-9.6 9.58-6.4 0-9.6-3.2-9.6-9.6 0-6.37 3.2-9.58 9.6-9.58z" stroke="#000" stroke-opacity="0" fill="#fff"/><path d="M-271.77-66.48v99.96h125.44v-99.96z" stroke="#000" stroke-opacity="0" fill-opacity="0"/><use xlink:href="#d" transform="matrix(1,0,0,1,-273.0540206092053,39.497962406343675) translate(35.04938271604939 17.77777777777778)"/><use xlink:href="#e" transform="matrix(1,0,0,1,-273.0540206092053,39.497962406343675) translate(25.141975308641975 44.44444444444444)"/><path d="M531.57 811.94a6 6 0 0 1 6-6h216.36a6 6 0 0 1 6 6v196.15a6 6 0 0 1-6 6H537.57a6 6 0 0 1-6-6z" stroke="#4285f4" stroke-width="2" fill-opacity="0"/><path d="M709.75 866.76v76.5H684.4c-.63 0-1.27-.53-1.27-1.22v-7.27c0-.7.64-1.23 1.28-1.23h15.75v-57.06H684.4c-.63 0-1.27-.54-1.27-1.23V868c0-.7.64-1.24 1.28-1.24h25.35zm-100.48 0c.77 0 1.28.54 1.28 1.23v7.25c0 .7-.5 1.23-1.28 1.23h-17.92v57.06h17.92c.64 0 1.16.54 1.16 1.23v7.27c0 .7-.52 1.22-1.16 1.22h-27.52v-76.5h27.52zm71.17 24.86v9.4l.4.17 8.7-3.07 1.78 5.27-8.7 3-.26.6 6.02 8.1-4.48 3.3-5.9-8.1h-.5l-5.9 8.1-4.47-3.3 5.9-8.1-.14-.6-8.7-3 1.78-5.27 8.57 3.06.4-.17v-9.4h5.5zm-65.4 0v9.34l.38.15 8.57-3.05 1.8 5.2-8.72 3-.25.6 6 8.03-4.47 3.3-5.9-8.04h-.5l-5.9 8.03-4.47-3.3 5.88-8.02-.13-.62-8.7-2.98 1.8-5.2 8.57 3.06.5-.14v-9.34h5.5zm32.63 0v9.34l.4.15 8.56-3.05 1.8 5.2-8.7 3-.26.6 6 8.03-4.47 3.3-5.9-8.04h-.5l-5.9 8.03-4.47-3.3 5.9-8.02-.14-.62-8.7-2.98 1.78-5.2 8.58 3.06.38-.14v-9.34h5.63z" stroke="#000" stroke-opacity="0" fill="#4285f4"/><path d="M583.03 867.53v74.97h125.44v-74.97z" stroke="#000" stroke-opacity="0" fill-opacity="0"/><use xlink:href="#f" transform="matrix(1,0,0,1,581.7535683691009,948.260815584469) translate(31.9320987654321 17.77777777777778)"/><use xlink:href="#g" transform="matrix(1,0,0,1,581.7535683691009,948.260815584469) translate(20.234567901234563 44.44444444444444)"/><path d="M-323.24 183.1a6 6 0 0 1 6-6h917.2a6 6 0 0 1 6 6V730.1a6 6 0 0 1-6 6h-917.2a6 6 0 0 1-6-6z" stroke="#4285f4" stroke-width="2" fill-opacity="0"/><path d="M-195.03 371c4.6 0 8.44 2.57 11.52 6.8 2.55 3.45 4.85 8.18 6.64 14.07 3.6 11.4 5.64 26.75 5.64 43.14 0 16.4-2.05 31.75-5.64 43.14-1.8 5.9-4.1 10.63-6.65 14.08-3.1 4.23-6.93 6.8-11.53 6.8-10.37 0-16.77-9.1-20.23-24.46-.13-.5-.13-1.03 0-1.4h10.37c1.42 6.13 3.2 12.28 5.13 14.33 1.28 1.4 2.7 1.9 4.74 1.9.13 0 .13 0 .25-.12.13 0 .26-.13.52-.26.63-.38 1.4-1.15 2.17-2.17 1.8-2.56 3.6-6.4 5.26-11.4 3.2-10.5 5.12-24.96 5.12-40.44 0-15.48-1.92-29.95-5.12-40.44-1.66-5-3.46-8.83-5.25-11.4-.76-1.02-1.53-1.8-2.16-2.17-.26-.14-.4-.27-.52-.27-.13-.12-.13-.12-.25-.12-1.67 0-3.2.9-4.74 2.95-2.17 2.82-3.97 7.3-5.38 13.7h-10.62c1.67-8.58 4.1-14.85 7.43-19.2 3.45-4.6 8.06-7.04 13.3-7.04zm1.4 79.88v9.6h-50.68c-2.7 0-4.88-2.18-4.88-4.87 0-2.67 2.18-4.72 4.87-4.72h50.68zm55.56-10.24c2.7 0 4.86 2.05 4.86 4.73 0 2.7-2.2 4.87-4.87 4.87H-162c.38-3.2.63-6.4.9-9.6h23.03zm-55.56-10.24v9.6h-62.72c-2.68 0-4.86-2.18-4.86-4.87 0-2.68 2.17-4.73 4.85-4.73h62.73zm32-10.37l23.56.13c2.7 0 4.86 2.05 4.86 4.73 0 2.43-1.8 4.47-4.23 4.73l-.64.13H-161c-.1-3.33-.37-6.53-.63-9.73zm-32-10.1v9.6h-50.68c-2.7 0-4.88-2.2-4.88-4.88 0-2.43 1.92-4.48 4.23-4.73h51.32z" stroke="#000" stroke-opacity="0" fill="#4285f4"/><path d="M-261.2 409.4v51.2h128v-51.2z" stroke="#000" stroke-opacity="0" fill-opacity="0"/><path d="M-197.2 371c7.06 0 12.8 28.68 12.8 64 0 35.33-5.74 64-12.8 64-7.08 0-12.8-28.67-12.8-64 0-35.32 5.72-64 12.8-64z" fill-opacity="0"/><use xlink:href="#h" transform="matrix(1,0,0,1,-261.20909586510754,504.0062092773991) translate(14.061728395061735 17.77777777777778)"/><use xlink:href="#i" transform="matrix(1,0,0,1,-261.20909586510754,504.0062092773991) translate(78.1358024691358 17.77777777777778)"/><use xlink:href="#j" transform="matrix(1,0,0,1,-261.20909586510754,504.0062092773991) translate(20.203703703703702 44.44444444444444)"/><path d="M74.16 288.35l19.2 13.86v-68.27l-19.2 13.8v40.62z" stroke="#000" stroke-opacity="0" fill="#669df6"/><path d="M74.16 256.7l19.2-11.4v-11.37l-19.2 22.76zM93.36 302.2v-11.37l-19.2-11.38 19.2 22.76z" stroke="#000" stroke-opacity="0" fill="#4285f4"/><path d="M112.56 313.6l-38.4-34.15v22.76l25.6 22.76 12.8-11.37zM99.65 211.18l-25.5 22.7.1 22.8 38.18-34.13-12.78-11.38z" stroke="#000" stroke-opacity="0" fill="#aecbfa"/><path d="M202.16 247.8l-19.2-13.87v68.28l19.2-13.78V247.8z" stroke="#000" stroke-opacity="0" fill="#669df6"/><path d="M202.16 279.45l-19.2 11.38v11.38l19.2-22.75zM182.96 233.93v11.38l19.2 11.4-19.2-22.77z" stroke="#000" stroke-opacity="0" fill="#4285f4"/><path d="M163.76 222.55l38.4 34.14v-22.77l-25.6-22.75-12.8 11.37zM176.67 324.96l25.5-22.7-.08-22.8-38.2 34.13 12.77 11.36zM118.96 268.07c0 3.14-2.87 5.7-6.4 5.7-3.53 0-6.4-2.56-6.4-5.7s2.87-5.7 6.4-5.7c3.53 0 6.4 2.56 6.4 5.7zM144.56 268.07c0 3.14-2.87 5.7-6.4 5.7-3.53 0-6.4-2.56-6.4-5.7s2.87-5.7 6.4-5.7c3.53 0 6.4 2.56 6.4 5.7zM170.03 268.07c0 3.14-2.86 5.7-6.4 5.7-3.53 0-6.4-2.56-6.4-5.7s2.87-5.7 6.4-5.7c3.54 0 6.4 2.56 6.4 5.7z" stroke="#000" stroke-opacity="0" fill="#aecbfa"/><path d="M93.36 216.87v102.4h89.6v-102.4z" stroke="#000" stroke-opacity="0" fill-opacity="0"/><use xlink:href="#k" transform="matrix(1,0,0,1,74.16143219212495,329.9653729865921) translate(35.04938271604939 17.77777777777778)"/><use xlink:href="#l" transform="matrix(1,0,0,1,74.16143219212495,329.9653729865921) translate(12.796296296296298 44.44444444444444)"/><use xlink:href="#m" transform="matrix(1,0,0,1,74.16143219212495,329.9653729865921) translate(96.68518518518519 44.44444444444444)"/><use xlink:href="#n" transform="matrix(1,0,0,1,74.16143219212495,329.9653729865921) translate(20.23456790123457 71.11111111111111)"/><path d="M74.16 625.8l19.2 13.87V571.4l-19.2 13.78v40.63z" stroke="#000" stroke-opacity="0" fill="#669df6"/><path d="M74.16 594.15l19.2-11.38V571.4l-19.2 22.75zM93.36 639.66V628.3l-19.2-11.4 19.2 22.76z" stroke="#000" stroke-opacity="0" fill="#4285f4"/><path d="M112.56 651.04l-38.4-34.13v22.76l25.6 22.76 12.8-11.38zM99.65 548.63l-25.5 22.72.1 22.8L112.42 560l-12.78-11.37z" stroke="#000" stroke-opacity="0" fill="#aecbfa"/><path d="M202.16 585.25l-19.2-13.86v68.26l19.2-13.8v-40.6z" stroke="#000" stroke-opacity="0" fill="#669df6"/><path d="M202.16 616.9l-19.2 11.4v11.37l19.2-22.76zM182.96 571.4v11.37l19.2 11.38-19.2-22.76z" stroke="#000" stroke-opacity="0" fill="#4285f4"/><path d="M163.76 560l38.4 34.15V571.4l-25.6-22.77-12.8 11.38zM176.67 662.42l25.5-22.7-.08-22.8-38.2 34.12 12.77 11.38zM118.96 605.53c0 3.14-2.87 5.7-6.4 5.7-3.53 0-6.4-2.56-6.4-5.7s2.87-5.7 6.4-5.7c3.53 0 6.4 2.56 6.4 5.7zM144.56 605.53c0 3.14-2.87 5.7-6.4 5.7-3.53 0-6.4-2.56-6.4-5.7s2.87-5.7 6.4-5.7c3.53 0 6.4 2.56 6.4 5.7zM170.03 605.53c0 3.14-2.86 5.7-6.4 5.7-3.53 0-6.4-2.56-6.4-5.7s2.87-5.7 6.4-5.7c3.54 0 6.4 2.56 6.4 5.7z" stroke="#000" stroke-opacity="0" fill="#aecbfa"/><path d="M93.36 554.32v102.4h89.6v-102.4z" stroke="#000" stroke-opacity="0" fill-opacity="0"/><use xlink:href="#o" transform="matrix(1,0,0,1,74.16143219212495,667.4231354967491) translate(40.574074074074076 17.77777777777778)"/><use xlink:href="#p" transform="matrix(1,0,0,1,74.16143219212495,667.4231354967491) translate(15.913580246913575 44.44444444444444)"/><path d="M841.18-167.66a6 6 0 0 1 6-6h216.36a6 6 0 0 1 6 6V28.5a6 6 0 0 1-6 6H847.18a6 6 0 0 1-6-6z" stroke="#4285f4" stroke-width="2" fill-opacity="0"/><path d="M954.9-140.9c-6.4 0-11.2 4.82-11.2 11.24 0 2.13.54 4.27 2.12 6.42l4.82-4.83v-1.6c0-2.67 2.12-4.82 4.8-4.82 2.66 0 4.8 2.16 4.8 4.84 0 2.66-2.14 4.8-4.8 4.8h-1.6l-4.8 4.28c5.33 3.2 12.27 2.15 15.46-3.2 3.2-5.35 2.15-12.3-3.2-15.5-1.6-1.1-3.72-1.63-6.4-1.63z" stroke="#000" stroke-opacity="0" stroke-width=".89" fill="#d2e3fc"/><path d="M950.65-108.35c0-3.73-1.07-7.47-3.2-10.67l-6.4 6.4c.54 1.6 1.07 2.66 1.07 4.27 0 2.67-1.06 4.8-2.66 6.4l3.2 8.53c5.33-3.2 8-9.06 8-14.93z" stroke="#000" stroke-opacity="0" stroke-width=".89" fill="#5e97f6"/><path d="M933.58-99.25c-4.8 0-9.08-3.73-9.08-8.56 0-4.8 3.73-9.05 8.55-9.05 1.62 0 3.74.53 5.36 1.58l6.4-5.88c-3.72-3.2-7.48-4.78-11.75-4.78-9.6 0-17.64 8-17.64 17.6 0 9.6 7.5 17.6 17.65 17.6 1.06 0 2.68 0 3.74-.53l-3.22-8z" stroke="#000" stroke-opacity="0" stroke-width=".89" fill="#5e97f6"/><path d="M955.5-92.27c-3.8 0-7.5.56-11.23 1.6l4.83 11.73c2.13 0 4.27-.47 6.4-.47 14.98 0 26.7 12.2 26.7 26.65 0 14.92-12.28 26.67-26.7 26.67-14.96 0-26.75-12.22-26.75-26.67 0-10.16 5.38-19.2 14.4-23.5l-4.74-11.73c-19.8 9.6-27.8 33.65-18.2 52.85 9.65 19.76 33.65 27.78 52.9 18.17 19.78-9.6 27.78-33.64 18.2-52.85-6.97-13.42-20.82-22.47-35.8-22.47z" stroke="#000" stroke-opacity="0" stroke-width=".89" fill="#4285f4"/><path d="M915.4-140.9v128h79.9v-128z" stroke="#000" stroke-opacity="0" fill-opacity="0"/><use xlink:href="#q" transform="matrix(1,0,0,1,915.4112582192001,-7.908807791219601) translate(-19.814814814814824 17.77777777777778)"/><path d="M977.36 288.35l19.2 13.86v-68.27l-19.2 13.8v40.62z" stroke="#000" stroke-opacity="0" fill="#669df6"/><path d="M977.36 256.7l19.2-11.4v-11.37l-19.2 22.76zM996.56 302.2v-11.37l-19.2-11.38 19.2 22.76z" stroke="#000" stroke-opacity="0" fill="#4285f4"/><path d="M1015.76 313.6l-38.4-34.15v22.76l25.6 22.76 12.8-11.37zM1002.85 211.18l-25.5 22.7.1 22.8 38.18-34.13-12.78-11.38z" stroke="#000" stroke-opacity="0" fill="#aecbfa"/><path d="M1105.36 247.8l-19.2-13.87v68.28l19.2-13.78V247.8z" stroke="#000" stroke-opacity="0" fill="#669df6"/><path d="M1105.36 279.45l-19.2 11.38v11.38l19.2-22.75zM1086.16 233.93v11.38l19.2 11.4-19.2-22.77z" stroke="#000" stroke-opacity="0" fill="#4285f4"/><path d="M1066.96 222.55l38.4 34.14v-22.77l-25.6-22.75-12.8 11.37zM1079.87 324.96l25.5-22.7-.08-22.8-38.2 34.13 12.77 11.36zM1022.16 268.07c0 3.14-2.87 5.7-6.4 5.7-3.53 0-6.4-2.56-6.4-5.7s2.87-5.7 6.4-5.7c3.53 0 6.4 2.56 6.4 5.7zM1047.76 268.07c0 3.14-2.87 5.7-6.4 5.7-3.53 0-6.4-2.56-6.4-5.7s2.87-5.7 6.4-5.7c3.53 0 6.4 2.56 6.4 5.7zM1073.23 268.07c0 3.14-2.86 5.7-6.4 5.7-3.53 0-6.4-2.56-6.4-5.7s2.87-5.7 6.4-5.7c3.54 0 6.4 2.56 6.4 5.7z" stroke="#000" stroke-opacity="0" fill="#aecbfa"/><path d="M996.56 216.87v102.4h89.6v-102.4z" stroke="#000" stroke-opacity="0" fill-opacity="0"/><use xlink:href="#r" transform="matrix(1,0,0,1,977.3612582192,329.9653729865921) translate(26.962962962962962 17.77777777777778)"/><path d="M977.36 605.06l19.2 13.86v-68.27l-19.2 13.8v40.6z" stroke="#000" stroke-opacity="0" fill="#669df6"/><path d="M977.36 573.4l19.2-11.37v-11.38l-19.2 22.76zM996.56 618.92v-11.38l-19.2-11.38 19.2 22.76z" stroke="#000" stroke-opacity="0" fill="#4285f4"/><path d="M1015.76 630.3l-38.4-34.13v22.75l25.6 22.76 12.8-11.38zM1002.85 527.9l-25.5 22.7.1 22.8 38.18-34.13-12.78-11.38z" stroke="#000" stroke-opacity="0" fill="#aecbfa"/><path d="M1105.36 564.5l-19.2-13.85v68.27l19.2-13.8v-40.6z" stroke="#000" stroke-opacity="0" fill="#669df6"/><path d="M1105.36 596.16l-19.2 11.38v11.38l19.2-22.75zM1086.16 550.65v11.38l19.2 11.38-19.2-22.75z" stroke="#000" stroke-opacity="0" fill="#4285f4"/><path d="M1066.96 539.27l38.4 34.14v-22.75l-25.6-22.76-12.8 11.37zM1079.87 641.68l25.5-22.7-.08-22.82-38.2 34.14 12.77 11.38zM1022.16 584.8c0 3.13-2.87 5.68-6.4 5.68-3.53 0-6.4-2.55-6.4-5.7 0-3.13 2.87-5.68 6.4-5.68 3.53 0 6.4 2.55 6.4 5.7zM1047.76 584.8c0 3.13-2.87 5.68-6.4 5.68-3.53 0-6.4-2.55-6.4-5.7 0-3.13 2.87-5.68 6.4-5.68 3.53 0 6.4 2.55 6.4 5.7zM1073.23 584.8c0 3.13-2.86 5.68-6.4 5.68-3.53 0-6.4-2.55-6.4-5.7 0-3.13 2.87-5.68 6.4-5.68 3.54 0 6.4 2.55 6.4 5.7z" stroke="#000" stroke-opacity="0" fill="#aecbfa"/><path d="M996.56 533.58v102.4h89.6V533.6z" stroke="#000" stroke-opacity="0" fill-opacity="0"/><use xlink:href="#s" transform="matrix(1,0,0,1,977.3612582192,646.6814981121657) translate(25.172839506172835 17.77777777777778)"/><use xlink:href="#t" transform="matrix(1,0,0,1,977.3612582192,646.6814981121657) translate(1.7160493827160508 44.44444444444444)"/><use xlink:href="#u" transform="matrix(1,0,0,1,977.3612582192,646.6814981121657) translate(52.20987654320988 44.44444444444444)"/><path d="M1468.22 330.96a6 6 0 0 1 6-6h216.36a6 6 0 0 1 6 6v196.16a6 6 0 0 1-6 6h-216.36a6 6 0 0 1-6-6z" stroke="#4285f4" stroke-width="2" fill-opacity="0"/><path d="M1518.4 370.85h128v44.67h-128v-44.67z" stroke="#000" stroke-opacity="0" fill="#aecbfa"/><path d="M1633.6 370.85h12.8v44.67h-12.8v-44.67z" stroke="#000" stroke-opacity="0" fill="#669df6"/><path d="M1646.4 370.85h-12.8v44.67l12.8-44.67z" stroke="#000" stroke-opacity="0" fill="#4285f4"/><path d="M1518.4 370.85h12.8v44.67h-12.8v-44.67z" stroke="#000" stroke-opacity="0" fill="#669df6"/><path d="M1544 390.02h38.4v6.38H1544v-6.38zM1611.2 383.6c6.4 0 9.6 3.2 9.6 9.58 0 6.4-3.2 9.6-9.6 9.6-6.4 0-9.6-3.2-9.6-9.6 0-6.38 3.2-9.58 9.6-9.58z" stroke="#000" stroke-opacity="0" fill="#fff"/><path d="M1518.4 428.27h128v44.68h-128v-44.68z" stroke="#000" stroke-opacity="0" fill="#aecbfa"/><path d="M1633.6 428.27h12.8v44.68h-12.8v-44.68z" stroke="#000" stroke-opacity="0" fill="#669df6"/><path d="M1646.4 428.27h-12.8v44.68l12.8-44.68z" stroke="#000" stroke-opacity="0" fill="#4285f4"/><path d="M1518.4 428.27h12.8v44.68h-12.8v-44.68z" stroke="#000" stroke-opacity="0" fill="#669df6"/><path d="M1544 447.35h38.4v6.37H1544v-6.37zM1611.2 441.02c6.4 0 9.6 3.2 9.6 9.6 0 6.38-3.2 9.58-9.6 9.58-6.4 0-9.6-3.2-9.6-9.6 0-6.38 3.2-9.58 9.6-9.58z" stroke="#000" stroke-opacity="0" fill="#fff"/><path d="M1519.68 371.87v99.96h125.44v-99.96z" stroke="#000" stroke-opacity="0" fill-opacity="0"/><use xlink:href="#d" transform="matrix(1,0,0,1,1518.3999999999996,477.8457708230029) translate(35.04938271604939 17.77777777777778)"/><use xlink:href="#e" transform="matrix(1,0,0,1,1518.3999999999996,477.8457708230029) translate(25.141975308641975 44.44444444444444)"/><path d="M797.5 389.04V274.07a6 6 0 0 1 6-6h157.48" stroke="#3a414a" fill="none"/><path d="M797.97 389.48l-.95.13v-.57h.95z" stroke="#3a414a" stroke-width=".05" fill="#3a414a"/><path d="M975.74 268.07l-14.26 4.64v-9.26z" stroke="#3a414a" fill="#3a414a"/><path d="M1105.86 268.07h174.43a6 6 0 0 1 6 6V431.2a6 6 0 0 0 6 6h158.53" stroke="#3a414a" fill="none"/><path d="M1105.87 268.55h-.5v-.95h.5z" stroke="#3a414a" stroke-width=".05" fill="#3a414a"/><path d="M1465.6 437.2l-14.27 4.63v-9.26z" stroke="#3a414a" fill="#3a414a"/><path d="M1121.74 584.8h4.96m4.95 0h9.9m4.97 0h9.9m4.96 0h9.9m4.96 0h9.9m4.96 0h9.9m4.96 0h9.9m4.97 0h9.9m4.96 0h9.9m4.95 0h9.9m4.96 0h9.92m4.95 0h9.9m4.97 0h9.9m4.96 0h9.9m4.96 0h9.9m4.96 0h9.9m4.96 0h9.9m4.97 0h4.95l.94-.1.9-.2.88-.37.8-.5.72-.6.6-.72.5-.8.37-.86.23-.9.07-.95v-5.03m0-5.03V558.7m0-5.02v-10.05m0-5.02v-10.03m0-5.02V513.5m0-5.02v-10.04m0-5.02v-10.05m0-5.02V468.3m0-5v-10.06m0-5.02v-5.02l.07-.94.22-.9.35-.88.5-.8.6-.72.72-.6.8-.5.88-.37.9-.23.95-.07h5.36m5.35 0h10.72m5.35 0h10.7m5.37 0h10.7m5.36 0h10.7m5.36 0h5.36" stroke="#3a414a" fill="none"/><path d="M1106.98 584.8l14.26-4.65v9.27z" stroke="#3a414a" fill="#3a414a"/><path d="M1467.22 437.68h-.52v-.95h.52z" stroke="#3a414a" stroke-width=".05" fill="#3a414a"/><path d="M955.36 168.75v-4.87m0-4.87v-9.73m0-4.87v-9.74m0-4.87v-9.75m0-4.87v-9.74m0-4.86v-9.74m0-4.87v-9.74m0-4.87v-9.74m0-4.87v-4.87" stroke="#3a414a" fill="none"/><path d="M955.84 169.25h-.95v-.5h.94z" stroke="#3a414a" stroke-width=".05" fill="#3a414a"/><path d="M955.36 37.12L960 51.38h-9.27z" stroke="#3a414a" fill="#3a414a"/><path d="M955.36 753.46v150.56a6 6 0 0 1-6 6H761.43" stroke="#3a414a" fill="none"/><path d="M955.36 738.7l4.64 14.26h-9.27z" stroke="#3a414a" fill="#3a414a"/><path d="M761.45 910.5h-.52v-.96h.52z" stroke="#3a414a" stroke-width=".05" fill="#3a414a"/><path d="M976.86 584.8H807.14a6 6 0 0 1-6-6v-58.17" stroke="#3a414a" fill="none"/><path d="M977.36 585.26h-.5v-.95h.5z" stroke="#3a414a" stroke-width=".05" fill="#3a414a"/><path d="M801.14 505.87l4.64 14.26h-9.27z" stroke="#3a414a" fill="#3a414a"/><path d="M-199.7 232.34h-4.92v5.14h5.1v2.28h5.3v-25.3c5.82-1.4 9.76-6.32 9.82-12.27 0-6.04-4.13-11.04-10.14-12.3-6.8-1.32-13.48 3.02-14.88 9.86-1.4 6.77 3.04 13.38 9.9 14.78v7.72h-7.83v5.15h7.65zm2.5-55.23l30.35 12.6v20.58c0 18.6-12.93 35.95-30.36 40.37-17.44-4.2-30.37-21.62-30.37-40.15v-20.8zm0 18.32c3.82 0 6.97 3.1 6.97 6.9 0 2.88-1.64 5.3-4.3 6.4-3.6 1.48-7.66-.2-9.06-3.74-1.44-3.53.26-7.57 3.78-9.04.85-.3 1.7-.52 2.6-.52z" stroke="#000" stroke-opacity="0" fill="#669df6"/><path d="M-197.2 239.76h2.75v-25.3c5.83-1.4 9.8-6.32 9.9-12.27 0-6.92-5.68-12.5-12.66-12.5v-12.6l30.35 12.6v20.58c0 18.6-12.93 35.95-30.36 40.37v-10.9zm0-44.34c3.82 0 6.94 3.1 6.97 6.9 0 2.88-1.64 5.3-4.3 6.4-.86.53-1.7.67-2.68.53z" stroke="#000" stroke-opacity="0" fill="#4285f4"/><g><use xlink:href="#v" transform="matrix(1,0,0,1,-227.5710484038815,255.6464895365484) translate(11.364197530864196 17.77777777777778)"/><use xlink:href="#w" transform="matrix(1,0,0,1,-227.5710484038815,255.6464895365484) translate(-34.25308641975309 44.44444444444444)"/><use xlink:href="#x" transform="matrix(1,0,0,1,-227.5710484038815,255.6464895365484) translate(-6.47530864197531 71.11111111111111)"/></g><defs><radialGradient gradientUnits="userSpaceOnUse" id="a" fx="-256641.13" fy="349089.35" cx="257980.64" cy="-348229.16" r="23844.67"><stop offset="0%" stop-color="#fff" stop-opacity=".1"/><stop offset="100%" stop-color="#fff" stop-opacity="0"/></radialGradient><path fill="#333" d="M240-174c0 40-23 61-54 70L253 0h-59l-57-94H76V0H24v-248c93 4 217-23 216 74zM76-134c48-2 112 12 112-38 0-48-66-32-112-35v73" id="y"/><path fill="#333" d="M185-48c-13 30-37 53-82 52C43 2 14-33 14-96s30-98 90-98c62 0 83 45 84 108H66c0 31 8 55 39 56 18 0 30-7 34-22zm-45-69c5-46-57-63-70-21-2 6-4 13-4 21h74" id="z"/><path fill="#333" d="M133-34C117-15 103 5 69 4 32 3 11-16 11-54c-1-60 55-63 116-61 1-26-3-47-28-47-18 1-26 9-28 27l-52-2c7-38 36-58 82-57s74 22 75 68l1 82c-1 14 12 18 25 15v27c-30 8-71 5-69-32zm-48 3c29 0 43-24 42-57-32 0-66-3-65 30 0 17 8 27 23 27" id="A"/><path fill="#333" d="M88-194c31-1 46 15 58 34l-1-101h50l1 261h-48c-2-10 0-23-3-31C134-8 116 4 84 4 32 4 16-41 15-95c0-56 19-97 73-99zm17 164c33 0 40-30 41-66 1-37-9-64-41-64s-38 30-39 65c0 43 13 65 39 65" id="B"/><g id="b"><use transform="matrix(0.04938271604938272,0,0,0.04938271604938272,0,0)" xlink:href="#y"/><use transform="matrix(0.04938271604938272,0,0,0.04938271604938272,12.790123456790125,0)" xlink:href="#z"/><use transform="matrix(0.04938271604938272,0,0,0.04938271604938272,22.66666666666667,0)" xlink:href="#A"/><use transform="matrix(0.04938271604938272,0,0,0.04938271604938272,32.543209876543216,0)" xlink:href="#B"/></g><path fill="#333" d="M190-63c-7 42-38 67-86 67-59 0-84-38-90-98-12-110 154-137 174-36l-49 2c-2-19-15-32-35-32-30 0-35 28-38 64-6 74 65 87 74 30" id="C"/><path fill="#333" d="M137-138c1-29-70-34-71-4 15 46 118 7 119 86 1 83-164 76-172 9l43-7c4 19 20 25 44 25 33 8 57-30 24-41C81-84 22-81 20-136c-2-80 154-74 161-7" id="D"/><path fill="#333" d="M128 0H69L1-190h53L99-40l48-150h52" id="E"/><g id="c"><use transform="matrix(0.04938271604938272,0,0,0.04938271604938272,0,0)" xlink:href="#C"/><use transform="matrix(0.04938271604938272,0,0,0.04938271604938272,9.876543209876544,0)" xlink:href="#D"/><use transform="matrix(0.04938271604938272,0,0,0.04938271604938272,19.75308641975309,0)" xlink:href="#E"/></g><path fill="#3a414a" d="M212-179c-10-28-35-45-73-45-59 0-87 40-87 99 0 60 29 101 89 101 43 0 62-24 78-52l27 14C228-24 195 4 139 4 59 4 22-46 18-125c-6-104 99-153 187-111 19 9 31 26 39 46" id="F"/><path fill="#3a414a" d="M24 0v-261h32V0H24" id="G"/><path fill="#3a414a" d="M100-194c62-1 85 37 85 99 1 63-27 99-86 99S16-35 15-95c0-66 28-99 85-99zM99-20c44 1 53-31 53-75 0-43-8-75-51-75s-53 32-53 75 10 74 51 75" id="H"/><path fill="#3a414a" d="M84 4C-5 8 30-112 23-190h32v120c0 31 7 50 39 49 72-2 45-101 50-169h31l1 190h-30c-1-10 1-25-2-33-11 22-28 36-60 37" id="I"/><path fill="#3a414a" d="M85-194c31 0 48 13 60 33l-1-100h32l1 261h-30c-2-10 0-23-3-31C134-8 116 4 85 4 32 4 16-35 15-94c0-66 23-100 70-100zm9 24c-40 0-46 34-46 75 0 40 6 74 45 74 42 0 51-32 51-76 0-42-9-74-50-73" id="J"/><g id="d"><use transform="matrix(0.06172839506172839,0,0,0.06172839506172839,0,0)" xlink:href="#F"/><use transform="matrix(0.06172839506172839,0,0,0.06172839506172839,15.987654320987653,0)" xlink:href="#G"/><use transform="matrix(0.06172839506172839,0,0,0.06172839506172839,20.864197530864196,0)" xlink:href="#H"/><use transform="matrix(0.06172839506172839,0,0,0.06172839506172839,33.20987654320987,0)" xlink:href="#I"/><use transform="matrix(0.06172839506172839,0,0,0.06172839506172839,45.55555555555555,0)" xlink:href="#J"/></g><path fill="#3a414a" d="M185-189c-5-48-123-54-124 2 14 75 158 14 163 119 3 78-121 87-175 55-17-10-28-26-33-46l33-7c5 56 141 63 141-1 0-78-155-14-162-118-5-82 145-84 179-34 5 7 8 16 11 25" id="K"/><path fill="#3a414a" d="M59-47c-2 24 18 29 38 22v24C64 9 27 4 27-40v-127H5v-23h24l9-43h21v43h35v23H59v120" id="L"/><path fill="#3a414a" d="M114-163C36-179 61-72 57 0H25l-1-190h30c1 12-1 29 2 39 6-27 23-49 58-41v29" id="M"/><path fill="#3a414a" d="M141-36C126-15 110 5 73 4 37 3 15-17 15-53c-1-64 63-63 125-63 3-35-9-54-41-54-24 1-41 7-42 31l-33-3c5-37 33-52 76-52 45 0 72 20 72 64v82c-1 20 7 32 28 27v20c-31 9-61-2-59-35zM48-53c0 20 12 33 32 33 41-3 63-29 60-74-43 2-92-5-92 41" id="N"/><path fill="#3a414a" d="M177-190C167-65 218 103 67 71c-23-6-38-20-44-43l32-5c15 47 100 32 89-28v-30C133-14 115 1 83 1 29 1 15-40 15-95c0-56 16-97 71-98 29-1 48 16 59 35 1-10 0-23 2-32h30zM94-22c36 0 50-32 50-73 0-42-14-75-50-75-39 0-46 34-46 75s6 73 46 73" id="O"/><path fill="#3a414a" d="M100-194c63 0 86 42 84 106H49c0 40 14 67 53 68 26 1 43-12 49-29l28 8c-11 28-37 45-77 45C44 4 14-33 15-96c1-61 26-98 85-98zm52 81c6-60-76-77-97-28-3 7-6 17-6 28h103" id="P"/><g id="e"><use transform="matrix(0.06172839506172839,0,0,0.06172839506172839,0,0)" xlink:href="#K"/><use transform="matrix(0.06172839506172839,0,0,0.06172839506172839,14.814814814814813,0)" xlink:href="#L"/><use transform="matrix(0.06172839506172839,0,0,0.06172839506172839,20.98765432098765,0)" xlink:href="#H"/><use transform="matrix(0.06172839506172839,0,0,0.06172839506172839,33.33333333333333,0)" xlink:href="#M"/><use transform="matrix(0.06172839506172839,0,0,0.06172839506172839,40.679012345679006,0)" xlink:href="#N"/><use transform="matrix(0.06172839506172839,0,0,0.06172839506172839,53.02469135802468,0)" xlink:href="#O"/><use transform="matrix(0.06172839506172839,0,0,0.06172839506172839,65.37037037037037,0)" xlink:href="#P"/></g><path fill="#3a414a" d="M96-169c-40 0-48 33-48 73s9 75 48 75c24 0 41-14 43-38l32 2c-6 37-31 61-74 61-59 0-76-41-82-99-10-93 101-131 147-64 4 7 5 14 7 22l-32 3c-4-21-16-35-41-35" id="Q"/><g id="f"><use transform="matrix(0.06172839506172839,0,0,0.06172839506172839,0,0)" xlink:href="#K"/><use transform="matrix(0.06172839506172839,0,0,0.06172839506172839,14.814814814814813,0)" xlink:href="#P"/><use transform="matrix(0.06172839506172839,0,0,0.06172839506172839,27.160493827160494,0)" xlink:href="#Q"/><use transform="matrix(0.06172839506172839,0,0,0.06172839506172839,38.27160493827161,0)" xlink:href="#M"/><use transform="matrix(0.06172839506172839,0,0,0.06172839506172839,45.617283950617285,0)" xlink:href="#P"/><use transform="matrix(0.06172839506172839,0,0,0.06172839506172839,57.96296296296296,0)" xlink:href="#L"/></g><path fill="#3a414a" d="M240 0l2-218c-23 76-54 145-80 218h-23L58-218 59 0H30v-248h44l77 211c21-75 51-140 76-211h43V0h-30" id="R"/><path fill="#3a414a" d="M117-194c89-4 53 116 60 194h-32v-121c0-31-8-49-39-48C34-167 62-67 57 0H25l-1-190h30c1 10-1 24 2 32 11-22 29-35 61-36" id="S"/><g id="g"><use transform="matrix(0.06172839506172839,0,0,0.06172839506172839,0,0)" xlink:href="#R"/><use transform="matrix(0.06172839506172839,0,0,0.06172839506172839,18.456790123456788,0)" xlink:href="#N"/><use transform="matrix(0.06172839506172839,0,0,0.06172839506172839,30.80246913580247,0)" xlink:href="#S"/><use transform="matrix(0.06172839506172839,0,0,0.06172839506172839,43.148148148148145,0)" xlink:href="#N"/><use transform="matrix(0.06172839506172839,0,0,0.06172839506172839,55.49382716049382,0)" xlink:href="#O"/><use transform="matrix(0.06172839506172839,0,0,0.06172839506172839,67.8395061728395,0)" xlink:href="#P"/><use transform="matrix(0.06172839506172839,0,0,0.06172839506172839,80.18518518518519,0)" xlink:href="#M"/></g><g id="h"><use transform="matrix(0.06172839506172839,0,0,0.06172839506172839,0,0)" xlink:href="#F"/><use transform="matrix(0.06172839506172839,0,0,0.06172839506172839,15.987654320987653,0)" xlink:href="#G"/><use transform="matrix(0.06172839506172839,0,0,0.06172839506172839,20.864197530864196,0)" xlink:href="#H"/><use transform="matrix(0.06172839506172839,0,0,0.06172839506172839,33.20987654320987,0)" xlink:href="#I"/><use transform="matrix(0.06172839506172839,0,0,0.06172839506172839,45.55555555555555,0)" xlink:href="#J"/></g><path fill="#3a414a" d="M205 0l-28-72H64L36 0H1l101-248h38L239 0h-34zm-38-99l-47-123c-12 45-31 82-46 123h93" id="T"/><path fill="#3a414a" d="M30-248c87 1 191-15 191 75 0 78-77 80-158 76V0H30v-248zm33 125c57 0 124 11 124-50 0-59-68-47-124-48v98" id="U"/><path fill="#3a414a" d="M33 0v-248h34V0H33" id="V"/><g id="i"><use transform="matrix(0.06172839506172839,0,0,0.06172839506172839,0,0)" xlink:href="#T"/><use transform="matrix(0.06172839506172839,0,0,0.06172839506172839,14.814814814814813,0)" xlink:href="#U"/><use transform="matrix(0.06172839506172839,0,0,0.06172839506172839,29.629629629629626,0)" xlink:href="#V"/></g><path fill="#3a414a" d="M143 4C61 4 22-44 18-125c-5-107 100-154 193-111 17 8 29 25 37 43l-32 9c-13-25-37-40-76-40-61 0-88 39-88 99 0 61 29 100 91 101 35 0 62-11 79-27v-45h-74v-28h105v86C228-13 192 4 143 4" id="W"/><path fill="#3a414a" d="M206 0h-36l-40-164L89 0H53L-1-190h32L70-26l43-164h34l41 164 42-164h31" id="X"/><path fill="#3a414a" d="M179-190L93 31C79 59 56 82 12 73V49c39 6 53-20 64-50L1-190h34L92-34l54-156h33" id="Y"/><g id="j"><use transform="matrix(0.06172839506172839,0,0,0.06172839506172839,0,0)" xlink:href="#W"/><use transform="matrix(0.06172839506172839,0,0,0.06172839506172839,17.28395061728395,0)" xlink:href="#N"/><use transform="matrix(0.06172839506172839,0,0,0.06172839506172839,29.629629629629626,0)" xlink:href="#L"/><use transform="matrix(0.06172839506172839,0,0,0.06172839506172839,35.80246913580247,0)" xlink:href="#P"/><use transform="matrix(0.06172839506172839,0,0,0.06172839506172839,48.148148148148145,0)" xlink:href="#X"/><use transform="matrix(0.06172839506172839,0,0,0.06172839506172839,64.1358024691358,0)" xlink:href="#N"/><use transform="matrix(0.06172839506172839,0,0,0.06172839506172839,76.48148148148148,0)" xlink:href="#Y"/></g><g id="k"><use transform="matrix(0.06172839506172839,0,0,0.06172839506172839,0,0)" xlink:href="#F"/><use transform="matrix(0.06172839506172839,0,0,0.06172839506172839,15.987654320987653,0)" xlink:href="#G"/><use transform="matrix(0.06172839506172839,0,0,0.06172839506172839,20.864197530864196,0)" xlink:href="#H"/><use transform="matrix(0.06172839506172839,0,0,0.06172839506172839,33.20987654320987,0)" xlink:href="#I"/><use transform="matrix(0.06172839506172839,0,0,0.06172839506172839,45.55555555555555,0)" xlink:href="#J"/></g><g id="l"><use transform="matrix(0.06172839506172839,0,0,0.06172839506172839,0,0)" xlink:href="#K"/><use transform="matrix(0.06172839506172839,0,0,0.06172839506172839,14.814814814814813,0)" xlink:href="#L"/><use transform="matrix(0.06172839506172839,0,0,0.06172839506172839,20.98765432098765,0)" xlink:href="#H"/><use transform="matrix(0.06172839506172839,0,0,0.06172839506172839,33.33333333333333,0)" xlink:href="#M"/><use transform="matrix(0.06172839506172839,0,0,0.06172839506172839,40.679012345679006,0)" xlink:href="#N"/><use transform="matrix(0.06172839506172839,0,0,0.06172839506172839,53.02469135802468,0)" xlink:href="#O"/><use transform="matrix(0.06172839506172839,0,0,0.06172839506172839,65.37037037037037,0)" xlink:href="#P"/></g><g id="m"><use transform="matrix(0.06172839506172839,0,0,0.06172839506172839,0,0)" xlink:href="#L"/><use transform="matrix(0.06172839506172839,0,0,0.06172839506172839,6.172839506172839,0)" xlink:href="#H"/></g><path fill="#3a414a" d="M160-131c35 5 61 23 61 61C221 17 115-2 30 0v-248c76 3 177-17 177 60 0 33-19 50-47 57zm-97-11c50-1 110 9 110-42 0-47-63-36-110-37v79zm0 115c55-2 124 14 124-45 0-56-70-42-124-44v89" id="Z"/><path fill="#3a414a" d="M24-231v-30h32v30H24zM24 0v-190h32V0H24" id="aa"/><path fill="#3a414a" d="M145-31C134-9 116 4 85 4 32 4 16-35 15-94c0-59 17-99 70-100 32-1 48 14 60 33 0-11-1-24 2-32h30l-1 268h-32zM93-21c41 0 51-33 51-76s-8-73-50-73c-40 0-46 35-46 75s5 74 45 74" id="ab"/><g id="n"><use transform="matrix(0.06172839506172839,0,0,0.06172839506172839,0,0)" xlink:href="#Z"/><use transform="matrix(0.06172839506172839,0,0,0.06172839506172839,14.814814814814813,0)" xlink:href="#aa"/><use transform="matrix(0.06172839506172839,0,0,0.06172839506172839,19.691358024691354,0)" xlink:href="#O"/><use transform="matrix(0.06172839506172839,0,0,0.06172839506172839,32.03703703703703,0)" xlink:href="#ab"/><use transform="matrix(0.06172839506172839,0,0,0.06172839506172839,44.38271604938271,0)" xlink:href="#I"/><use transform="matrix(0.06172839506172839,0,0,0.06172839506172839,56.728395061728385,0)" xlink:href="#P"/><use transform="matrix(0.06172839506172839,0,0,0.06172839506172839,69.07407407407406,0)" xlink:href="#M"/><use transform="matrix(0.06172839506172839,0,0,0.06172839506172839,76.41975308641975,0)" xlink:href="#Y"/></g><path fill="#3a414a" d="M30-248c118-7 216 8 213 122C240-48 200 0 122 0H30v-248zM63-27c89 8 146-16 146-99s-60-101-146-95v194" id="ac"/><g id="o"><use transform="matrix(0.06172839506172839,0,0,0.06172839506172839,0,0)" xlink:href="#ac"/><use transform="matrix(0.06172839506172839,0,0,0.06172839506172839,15.987654320987653,0)" xlink:href="#N"/><use transform="matrix(0.06172839506172839,0,0,0.06172839506172839,28.333333333333332,0)" xlink:href="#L"/><use transform="matrix(0.06172839506172839,0,0,0.06172839506172839,34.50617283950617,0)" xlink:href="#N"/></g><path fill="#3a414a" d="M135-143c-3-34-86-38-87 0 15 53 115 12 119 90S17 21 10-45l28-5c4 36 97 45 98 0-10-56-113-15-118-90-4-57 82-63 122-42 12 7 21 19 24 35" id="ad"/><g id="p"><use transform="matrix(0.06172839506172839,0,0,0.06172839506172839,0,0)" xlink:href="#V"/><use transform="matrix(0.06172839506172839,0,0,0.06172839506172839,6.172839506172839,0)" xlink:href="#S"/><use transform="matrix(0.06172839506172839,0,0,0.06172839506172839,18.51851851851852,0)" xlink:href="#ad"/><use transform="matrix(0.06172839506172839,0,0,0.06172839506172839,29.62962962962963,0)" xlink:href="#P"/><use transform="matrix(0.06172839506172839,0,0,0.06172839506172839,41.97530864197531,0)" xlink:href="#M"/><use transform="matrix(0.06172839506172839,0,0,0.06172839506172839,49.32098765432099,0)" xlink:href="#L"/><use transform="matrix(0.06172839506172839,0,0,0.06172839506172839,55.49382716049383,0)" xlink:href="#aa"/><use transform="matrix(0.06172839506172839,0,0,0.06172839506172839,60.370370370370374,0)" xlink:href="#H"/><use transform="matrix(0.06172839506172839,0,0,0.06172839506172839,72.71604938271605,0)" xlink:href="#S"/><use transform="matrix(0.06172839506172839,0,0,0.06172839506172839,85.06172839506173,0)" xlink:href="#ad"/></g><path fill="#3a414a" d="M106-169C34-169 62-67 57 0H25v-261h32l-1 103c12-21 28-36 61-36 89 0 53 116 60 194h-32v-121c2-32-8-49-39-48" id="ae"/><path fill="#3a414a" d="M115-194c53 0 69 39 70 98 0 66-23 100-70 100C84 3 66-7 56-30L54 0H23l1-261h32v101c10-23 28-34 59-34zm-8 174c40 0 45-34 45-75 0-40-5-75-45-74-42 0-51 32-51 76 0 43 10 73 51 73" id="af"/><g id="q"><use transform="matrix(0.06172839506172839,0,0,0.06172839506172839,0,0)" xlink:href="#ac"/><use transform="matrix(0.06172839506172839,0,0,0.06172839506172839,15.987654320987653,0)" xlink:href="#N"/><use transform="matrix(0.06172839506172839,0,0,0.06172839506172839,28.333333333333332,0)" xlink:href="#ad"/><use transform="matrix(0.06172839506172839,0,0,0.06172839506172839,39.44444444444444,0)" xlink:href="#ae"/><use transform="matrix(0.06172839506172839,0,0,0.06172839506172839,51.79012345679012,0)" xlink:href="#af"/><use transform="matrix(0.06172839506172839,0,0,0.06172839506172839,64.1358024691358,0)" xlink:href="#H"/><use transform="matrix(0.06172839506172839,0,0,0.06172839506172839,76.48148148148148,0)" xlink:href="#N"/><use transform="matrix(0.06172839506172839,0,0,0.06172839506172839,88.82716049382717,0)" xlink:href="#M"/><use transform="matrix(0.06172839506172839,0,0,0.06172839506172839,96.17283950617285,0)" xlink:href="#J"/><use transform="matrix(0.06172839506172839,0,0,0.06172839506172839,108.51851851851853,0)" xlink:href="#ad"/></g><path fill="#3a414a" d="M143 0L79-87 56-68V0H24v-261h32v163l83-92h37l-77 82L181 0h-38" id="ag"/><path fill="#3a414a" d="M115-194c55 1 70 41 70 98S169 2 115 4C84 4 66-9 55-30l1 105H24l-1-265h31l2 30c10-21 28-34 59-34zm-8 174c40 0 45-34 45-75s-6-73-45-74c-42 0-51 32-51 76 0 43 10 73 51 73" id="ah"/><g id="r"><use transform="matrix(0.06172839506172839,0,0,0.06172839506172839,0,0)" xlink:href="#Z"/><use transform="matrix(0.06172839506172839,0,0,0.06172839506172839,14.814814814814813,0)" xlink:href="#N"/><use transform="matrix(0.06172839506172839,0,0,0.06172839506172839,27.160493827160494,0)" xlink:href="#Q"/><use transform="matrix(0.06172839506172839,0,0,0.06172839506172839,38.27160493827161,0)" xlink:href="#ag"/><use transform="matrix(0.06172839506172839,0,0,0.06172839506172839,49.38271604938272,0)" xlink:href="#I"/><use transform="matrix(0.06172839506172839,0,0,0.06172839506172839,61.7283950617284,0)" xlink:href="#ah"/></g><path fill="#3a414a" d="M233-177c-1 41-23 64-60 70L243 0h-38l-65-103H63V0H30v-248c88 3 205-21 203 71zM63-129c60-2 137 13 137-47 0-61-80-42-137-45v92" id="ai"/><g id="s"><use transform="matrix(0.06172839506172839,0,0,0.06172839506172839,0,0)" xlink:href="#ai"/><use transform="matrix(0.06172839506172839,0,0,0.06172839506172839,15.987654320987653,0)" xlink:href="#P"/><use transform="matrix(0.06172839506172839,0,0,0.06172839506172839,28.333333333333332,0)" xlink:href="#ad"/><use transform="matrix(0.06172839506172839,0,0,0.06172839506172839,39.44444444444444,0)" xlink:href="#L"/><use transform="matrix(0.06172839506172839,0,0,0.06172839506172839,45.617283950617285,0)" xlink:href="#H"/><use transform="matrix(0.06172839506172839,0,0,0.06172839506172839,57.96296296296296,0)" xlink:href="#M"/><use transform="matrix(0.06172839506172839,0,0,0.06172839506172839,65.30864197530865,0)" xlink:href="#P"/></g><path fill="#3a414a" d="M101-234c-31-9-42 10-38 44h38v23H63V0H32v-167H5v-23h27c-7-52 17-82 69-68v24" id="aj"/><path fill="#3a414a" d="M210-169c-67 3-38 105-44 169h-31v-121c0-29-5-50-35-48C34-165 62-65 56 0H25l-1-190h30c1 10-1 24 2 32 10-44 99-50 107 0 11-21 27-35 58-36 85-2 47 119 55 194h-31v-121c0-29-5-49-35-48" id="ak"/><g id="t"><use transform="matrix(0.06172839506172839,0,0,0.06172839506172839,0,0)" xlink:href="#aj"/><use transform="matrix(0.06172839506172839,0,0,0.06172839506172839,6.172839506172839,0)" xlink:href="#M"/><use transform="matrix(0.06172839506172839,0,0,0.06172839506172839,13.518518518518519,0)" xlink:href="#H"/><use transform="matrix(0.06172839506172839,0,0,0.06172839506172839,25.864197530864196,0)" xlink:href="#ak"/></g><g id="u"><use transform="matrix(0.06172839506172839,0,0,0.06172839506172839,0,0)" xlink:href="#Z"/><use transform="matrix(0.06172839506172839,0,0,0.06172839506172839,14.814814814814813,0)" xlink:href="#N"/><use transform="matrix(0.06172839506172839,0,0,0.06172839506172839,27.160493827160494,0)" xlink:href="#Q"/><use transform="matrix(0.06172839506172839,0,0,0.06172839506172839,38.27160493827161,0)" xlink:href="#ag"/><use transform="matrix(0.06172839506172839,0,0,0.06172839506172839,49.38271604938272,0)" xlink:href="#I"/><use transform="matrix(0.06172839506172839,0,0,0.06172839506172839,61.7283950617284,0)" xlink:href="#ah"/></g><path fill="#3a414a" d="M194 0L95-120 63-95V0H30v-248h33v124l119-124h40L117-140 236 0h-42" id="al"/><g id="v"><use transform="matrix(0.06172839506172839,0,0,0.06172839506172839,0,0)" xlink:href="#al"/><use transform="matrix(0.06172839506172839,0,0,0.06172839506172839,14.814814814814813,0)" xlink:href="#P"/><use transform="matrix(0.06172839506172839,0,0,0.06172839506172839,27.160493827160494,0)" xlink:href="#Y"/></g><g id="w"><use transform="matrix(0.06172839506172839,0,0,0.06172839506172839,0,0)" xlink:href="#R"/><use transform="matrix(0.06172839506172839,0,0,0.06172839506172839,18.456790123456788,0)" xlink:href="#N"/><use transform="matrix(0.06172839506172839,0,0,0.06172839506172839,30.80246913580247,0)" xlink:href="#S"/><use transform="matrix(0.06172839506172839,0,0,0.06172839506172839,43.148148148148145,0)" xlink:href="#N"/><use transform="matrix(0.06172839506172839,0,0,0.06172839506172839,55.49382716049382,0)" xlink:href="#O"/><use transform="matrix(0.06172839506172839,0,0,0.06172839506172839,67.8395061728395,0)" xlink:href="#P"/><use transform="matrix(0.06172839506172839,0,0,0.06172839506172839,80.18518518518519,0)" xlink:href="#ak"/><use transform="matrix(0.06172839506172839,0,0,0.06172839506172839,98.64197530864197,0)" xlink:href="#P"/><use transform="matrix(0.06172839506172839,0,0,0.06172839506172839,110.98765432098766,0)" xlink:href="#S"/><use transform="matrix(0.06172839506172839,0,0,0.06172839506172839,123.33333333333334,0)" xlink:href="#L"/></g><path fill="#3a414a" d="M108 0H70L1-190h34L89-25l56-165h34" id="am"/><g id="x"><use transform="matrix(0.06172839506172839,0,0,0.06172839506172839,0,0)" xlink:href="#K"/><use transform="matrix(0.06172839506172839,0,0,0.06172839506172839,14.814814814814813,0)" xlink:href="#P"/><use transform="matrix(0.06172839506172839,0,0,0.06172839506172839,27.160493827160494,0)" xlink:href="#M"/><use transform="matrix(0.06172839506172839,0,0,0.06172839506172839,34.50617283950617,0)" xlink:href="#am"/><use transform="matrix(0.06172839506172839,0,0,0.06172839506172839,45.61728395061728,0)" xlink:href="#aa"/><use transform="matrix(0.06172839506172839,0,0,0.06172839506172839,50.49382716049382,0)" xlink:href="#Q"/><use transform="matrix(0.06172839506172839,0,0,0.06172839506172839,61.60493827160494,0)" xlink:href="#P"/></g></defs></g></svg>