<svg xmlns="http://www.w3.org/2000/svg" xmlns:xlink="http://www.w3.org/1999/xlink" xmlns:lucid="lucid" width="2259.53" height="1544.53"><g transform="translate(814.9545338477706 212.84869969876104)" lucid:page-tab-id="0_0"><path d="M-450.2-190.35a2 2 0 0 1 2-2h1870.27a2 2 0 0 1 2 2v1499.53a2 2 0 0 1-2 2H-448.2a2 2 0 0 1-2-2z" fill="#f6f6f6"/><path d="M-398.47-164.27c.02-2.27.85-4.2 2.48-5.8 1.65-1.6 3.6-2.38 5.88-2.37 1.06-.02 2.07.17 3.03.56.98.4 1.85.96 2.6 1.7l-1.64 1.56c-1.13-1.07-2.44-1.6-3.98-1.6-1.06 0-2.07.27-3 .8-.9.55-1.63 1.28-2.15 2.2-.53.94-.76 1.93-.74 3-.03 1.06.2 2.05.73 2.98.52.92 1.24 1.66 2.16 2.2.9.53 1.92.8 2.98.8.78.03 1.52-.1 2.23-.38.72-.3 1.34-.7 1.9-1.26.73-.8 1.14-1.73 1.2-2.8h-5.32v-2.33h7.47c.1.46.14.92.14 1.4.06 2-.6 3.74-1.96 5.22-.74.77-1.6 1.35-2.58 1.75-1 .4-2.02.58-3.08.54-2.28.02-4.23-.77-5.87-2.36-1.62-1.6-2.45-3.53-2.47-5.8zm0 0M-376.44-166.62c-1.45 0-2.7.52-3.72 1.55-1.04 1.03-1.54 2.27-1.54 3.72 0 1.46.52 2.7 1.56 3.72 1.03 1.03 2.28 1.54 3.73 1.54 1.44 0 2.68-.5 3.7-1.53 1.05-1.03 1.55-2.27 1.55-3.72.03-.95-.2-1.84-.66-2.66-.47-.83-1.14-1.48-1.97-1.94-.83-.47-1.72-.7-2.67-.68zm0 8.45c-.55 0-1.06-.16-1.54-.45-.48-.3-.85-.68-1.1-1.17-.25-.5-.37-1-.35-1.56 0-.83.3-1.54.88-2.12.57-.6 1.3-.88 2.1-.88.84 0 1.58.3 2.15.88.58.58.88 1.3.88 2.12.02.55-.1 1.08-.35 1.57-.25.5-.62.9-1.1 1.2-.5.28-1 .43-1.57.44zM-364.87-166.62c-1.45 0-2.7.52-3.72 1.55-1.03 1.03-1.53 2.28-1.53 3.73 0 1.45.52 2.7 1.56 3.72 1.03 1.02 2.28 1.54 3.72 1.53 1.45 0 2.7-.5 3.73-1.53 1.04-1.03 1.54-2.27 1.54-3.72.02-.95-.2-1.84-.7-2.66-.47-.83-1.1-1.48-1.92-1.95-.83-.47-1.73-.7-2.67-.67zm0 8.45c-.55 0-1.08-.16-1.56-.45-.5-.3-.83-.68-1.08-1.17-.27-.5-.4-1-.38-1.56 0-.83.32-1.54.9-2.12.57-.6 1.28-.88 2.1-.88.84 0 1.55.3 2.13.88.57.58.87 1.3.87 2.12.02.55-.1 1.08-.34 1.57-.26.5-.62.9-1.1 1.2-.5.28-1 .43-1.55.44zM-350.7-166.3v.86h-.07c-.37-.4-.78-.7-1.26-.9-.5-.2-1-.3-1.52-.28-1.4.06-2.62.6-3.6 1.62-.96 1.02-1.46 2.23-1.46 3.64 0 1.4.5 2.63 1.46 3.64.97 1.02 2.2 1.56 3.6 1.62.52.02 1.02-.08 1.5-.3.5-.2.93-.5 1.27-.9h.07v.76c0 2-1.08 3.1-2.83 3.1-.57-.02-1.1-.2-1.6-.54-.47-.34-.8-.78-1.02-1.33l-2 .83c.4.95 1 1.7 1.86 2.27.86.57 1.8.85 2.84.84 2.7 0 5-1.6 5-5.5v-9.44h-2.22zm-2.67 8.14c-.55 0-1.06-.16-1.52-.45-.45-.3-.8-.7-1.07-1.18-.25-.5-.34-1-.32-1.55 0-.55.08-1.08.33-1.57.26-.5.62-.88 1.08-1.18.47-.3.98-.45 1.53-.47.55.03 1.04.2 1.5.5.46.3.8.7 1.03 1.18.23.48.35 1 .3 1.54.02.53-.07 1.04-.3 1.52-.23.47-.6.85-1.03 1.15-.44.3-.97.46-1.5.5zm0 0M-346.9-171.88h2.32v15.47h-2.32zM-338.23-158.16c-.56.02-1.06-.1-1.52-.4-.46-.3-.8-.7-1.04-1.2l7.07-2.9-.25-.6c-.32-1-.9-1.78-1.72-2.4-.83-.6-1.75-.93-2.8-.96-.9 0-1.78.23-2.6.7-.8.5-1.4 1.14-1.83 1.95-.43.82-.62 1.7-.57 2.62-.02.94.2 1.82.67 2.64.46.82 1.1 1.46 1.93 1.93.83.47 1.7.7 2.64.68.88.02 1.73-.2 2.5-.6.8-.42 1.4-1 1.9-1.72l-1.8-1.2c-.27.45-.64.8-1.1 1.07-.46.26-.94.4-1.47.4zm-.2-6.43c.43-.03.82.05 1.2.26.35.2.63.5.8.87l-4.7 2c-.05-.53.04-1.02.27-1.5.23-.47.56-.85 1-1.14.43-.3.9-.46 1.44-.5zm0 0M-329.15-163.55c-.02-1.34.28-2.6.94-3.76.66-1.17 1.56-2.1 2.73-2.75 1.17-.67 2.42-1 3.75-.96 1-.03 1.98.16 2.9.57.92.4 1.7 1 2.37 1.75l-1.3 1.24c-.47-.6-1.07-1.07-1.8-1.4-.7-.3-1.4-.45-2.2-.42-1-.02-1.97.23-2.85.74-.87.5-1.56 1.2-2.04 2.1-.5.9-.72 1.86-.67 2.87-.06 1 .2 1.95.68 2.84.48.87 1.15 1.57 2.02 2.07.88.5 1.82.75 2.83.74.85 0 1.66-.16 2.42-.5.76-.36 1.43-.85 1.98-1.5l1.3 1.3c-1.05 1.15-2.3 1.9-3.8 2.3-1.53.36-3 .27-4.45-.28-1.45-.55-2.64-1.46-3.52-2.73-.87-1.3-1.3-2.7-1.3-4.25zm0 0M-314.64-156.4v-14.3h1.84v14.3zM-301.37-161.3c0 1.4-.48 2.58-1.47 3.56-1 .98-2.18 1.47-3.56 1.47s-2.56-.5-3.54-1.47c-1-.98-1.48-2.17-1.48-3.55s.5-2.57 1.48-3.55c1-.98 2.16-1.47 3.54-1.47s2.57.5 3.56 1.47c1 .98 1.47 2.17 1.47 3.56zm-1.83 0c.06-.72-.12-1.4-.5-2-.4-.6-.98-1.04-1.67-1.28-.7-.23-1.38-.23-2.07 0-.7.24-1.24.67-1.63 1.28-.4.6-.6 1.28-.53 2 0 .9.32 1.65.94 2.27.63.63 1.38.94 2.28.94.9 0 1.66-.3 2.28-.93.62-.62.94-1.38.94-2.26zM-293.06-156.4v-1.36h-.12c-.34.52-.78.92-1.33 1.22-.56.3-1.16.45-1.78.45-2.53 0-3.73-1.68-3.73-4.1v-5.98h1.83v5.68c0 2 1 2.74 2.42 2.74.76-.07 1.4-.4 1.9-.97.5-.6.72-1.26.67-2.03v-5.38h1.84v9.76h-1.75zM-289.82-161.3c-.07-1.35.37-2.53 1.27-3.54.9-1 2.02-1.57 3.38-1.66.66-.02 1.3.12 1.88.4.6.3 1.1.73 1.46 1.27h.07l-.07-1.35v-4.5h1.84v14.27h-1.77v-1.36h-.07c-.37.54-.85.96-1.45 1.26-.58.3-1.2.43-1.87.4-1.36-.08-2.5-.64-3.38-1.65-.9-1-1.34-2.2-1.27-3.54zm8.07 0c.1-.72-.06-1.4-.46-2-.4-.63-.93-1.06-1.62-1.3-.7-.25-1.38-.25-2.07 0-.68.24-1.23.67-1.62 1.3-.4.6-.55 1.28-.46 2-.1.73.07 1.4.46 2.02.4.62.94 1.05 1.63 1.3.7.24 1.4.24 2.08 0 .7-.25 1.22-.68 1.6-1.3.4-.62.57-1.3.47-2zM-274.96-156.4v-14.3h4.88c.78-.02 1.5.16 2.2.53.7.37 1.22.9 1.64 1.56.4.65.6 1.38.62 2.16-.03.78-.2 1.5-.62 2.17-.42.67-.95 1.2-1.64 1.56-.7.36-1.42.53-2.2.5h-3.02v5.8h-1.84zm4.9-7.55c.7 0 1.3-.24 1.77-.73.5-.5.75-1.07.75-1.76 0-.7-.26-1.28-.74-1.77-.47-.5-1.07-.74-1.76-.74h-3.13v5h3.1zM-264.33-156.4v-14.3h1.83v14.3zM-260.9-159.36c0-2.2 2-3.4 4.3-3.4.94-.03 1.83.17 2.66.6v-.3c-.05-.57-.25-1.1-.64-1.53-.4-.43-.85-.7-1.43-.82s-1.14-.05-1.67.2c-.52.26-.9.65-1.17 1.17l-1.68-.72c.46-.9 1.15-1.54 2.05-1.96.9-.43 1.84-.53 2.83-.3 1 .2 1.8.7 2.44 1.47.64.76.96 1.65 1 2.65v5.9h-1.74v-1.36h-.1c-.34.54-.8.96-1.37 1.26-.6.3-1.2.44-1.85.4-.62.07-1.2-.04-1.77-.3-.58-.3-1-.7-1.36-1.22-.34-.53-.53-1.1-.53-1.74zm6.98-1.26c-.7-.47-1.47-.68-2.32-.63-1.93 0-2.7 1-2.7 1.93.06.5.3.88.68 1.18.4.3.82.43 1.3.38.8 0 1.5-.28 2.08-.83.57-.54.9-1.22.94-2.02zM-249.55-159.38v-5.13h-1.72v-1.68h1.72v-3h1.84v3h2.4v1.67h-2.4v4.98c0 1.1.48 1.6 1.33 1.6.3 0 .55-.04.83-.16l.64 1.57c-.48.2-.97.27-1.47.25-.58.07-1.13-.03-1.66-.3s-.92-.66-1.2-1.18c-.27-.52-.4-1.07-.32-1.65zM-237.6-170.5l-.6 1.56c-.28-.12-.54-.17-.84-.16-.3-.02-.57.04-.85.2-.26.14-.47.35-.6.62-.15.27-.2.56-.17.86v1.24h2.46v1.67h-2.56v8.1h-1.84v-8.1h-1.84v-1.68h1.84v-1.3c-.02-.62.1-1.2.44-1.72.32-.53.76-.94 1.3-1.22.56-.3 1.14-.4 1.76-.35.53-.03 1.03.06 1.5.26zM-227.58-161.3c0 1.4-.48 2.58-1.47 3.56-1 .98-2.2 1.47-3.57 1.47-1.38 0-2.57-.5-3.56-1.47-1-.98-1.47-2.17-1.47-3.55s.48-2.57 1.47-3.55c1-.98 2.18-1.47 3.56-1.47s2.58.5 3.57 1.47c1 .98 1.47 2.17 1.47 3.56zm-1.84 0c.07-.72-.12-1.4-.5-2-.4-.6-.97-1.04-1.66-1.28-.7-.23-1.38-.23-2.07 0-.7.24-1.27.67-1.66 1.28-.4.6-.58 1.28-.5 2-.08.74.1 1.4.5 2.02.38.6.96 1.03 1.65 1.27.7.23 1.38.23 2.07 0 .7-.25 1.26-.67 1.65-1.28.4-.6.58-1.28.5-2zM-226.1-156.4v-9.78h1.76v1.6h.07c.25-.55.67-1 1.17-1.33.5-.34 1.1-.5 1.68-.52.5-.02.95.06 1.38.24l-.7 1.7c-.33-.1-.65-.14-1-.13-.48 0-.92.16-1.33.42-.42.27-.74.6-.95 1.05-.2.43-.32.9-.27 1.38v5.34zm0 0M-219.05-166.18h1.75v1.35h.1c.34-.5.77-.9 1.3-1.2.53-.3 1.1-.45 1.7-.47.67-.05 1.27.1 1.84.44.58.34 1 .82 1.25 1.43.35-.58.86-1.04 1.46-1.38.6-.34 1.26-.5 1.95-.5 2.4 0 3.5 1.7 3.5 4.1v6h-1.83v-5.7c0-2-.78-2.73-2.2-2.73-1.4 0-2.47 1.52-2.47 3v5.4h-1.84v-5.68c0-2-.78-2.73-2.18-2.73-1.4 0-2.5 1.52-2.5 3v5.4h-1.85v-9.75z" fill="#737373"/><path d="M-415.8-156.4l-2.9 5h-7.5c-.35 0-.65-.1-.95-.26-.3-.17-.53-.4-.7-.7l-6.06-10.6c-.18-.28-.27-.6-.27-.92 0-.34.1-.65.26-.94l2.3-4.05 2.84 5 4.32 7.47zm0 0" fill="#ffcc40"/><path d="M-406.3-162.95l-6.1 10.6c-.17.3-.4.52-.7.7-.3.16-.6.24-.94.24h-4.65l2.9-5 4.3-7.48-4.3-7.48h5.67l3.77 6.55c.16.28.28.6.28.92 0 .33-.07.64-.23.93z" fill="#da4437"/><path d="M-410.13-171.36h-14.3l-4.3 7.48-2.88-5 3.76-6.53c.16-.3.4-.53.7-.7.3-.17.6-.25.93-.25h12.16c.34 0 .64.08.94.25.3.17.53.4.7.7z" fill="#4284f3"/><path d="M-415.8-171.36l4.3 7.48-4.3 7.48h-8.64l-4.3-7.48 4.3-7.48z" fill="#dfdfdf"/><path d="M-423.86-163.88c0-2.06 1.68-3.74 3.75-3.74 2.06 0 3.74 1.68 3.74 3.74 0 2.07-1.68 3.74-3.75 3.74-2.08 0-3.76-1.67-3.76-3.74z" fill="#fff"/><path d="M-427.84-175.25c.16-.3.4-.52.7-.7.3-.16.6-.24.93-.24h12.16c.34 0 .64.1.94.26.3.17.53.4.7.7l2.27 3.88-2.28-4.05c-.17-.3-.4-.53-.7-.7-.3-.17-.6-.25-.94-.25h-12.17c-.35 0-.65.08-.95.25-.3.17-.53.4-.7.7l-3.76 6.53v.08z" fill="#fff" fill-opacity=".2"/><path d="M-428.74-163.88l4.3-7.48h14.35l-.05-.16h-14.3l-4.3 7.48" fill="#1a237e" fill-opacity=".2"/><path d="M-433.9-164.66l2.3-4 2.86 5 4.3 7.48h8.56l.07-.16h-8.64l-4.3-7.54-2.87-5-2.34 4c-.18.3-.25.65-.23 1 .03-.28.12-.54.26-.78zm0 0" fill="#fff" fill-opacity=".2"/><path d="M-418.6-151.57h-7.6c-.35 0-.65-.08-.95-.25-.3-.17-.53-.4-.7-.7l-6.06-10.58c-.15-.26-.24-.55-.27-.85-.02.36.07.7.26 1l6.06 10.6c.16.3.4.52.7.7.3.16.6.24.93.24h7.5z" fill="#be360c"/><path d="M-411.4-163.88l-4.32-7.48h-.1l4.33 7.48zM-406.3-163.1l-6.1 10.6c-.17.28-.4.5-.7.68-.3.17-.6.25-.94.25h-4.56l-.1.16h4.66c.34 0 .64-.1.94-.26.3-.17.53-.4.7-.7l6.1-10.58c.17-.3.24-.64.22-1-.03.3-.1.58-.23.84zm0 0" fill="#3e2723"/><path d="M-410.13-171.2l3.77 6.55c.14.27.23.55.25.85.02-.35-.08-.7-.26-1l-3.77-6.56h-5.68l.08.16M-415.8-156.24l4.4-7.64h-.1l-4.3 7.48-2.9 5h.1z" fill="#fff"/><path d="M-406.3-164.8l-3.83-6.56-2.28-4.05c-.17-.3-.4-.53-.7-.7-.3-.17-.6-.25-.94-.25h-12.17c-.35 0-.65.08-.95.25-.3.17-.53.4-.7.7l-6.06 10.6c-.18.28-.27.6-.27.93 0 .33.1.64.26.93l6.06 10.6c.16.28.4.5.7.68.3.17.6.25.93.25h12.16c.34 0 .64-.1.94-.26.3-.17.53-.4.7-.7l6.1-10.58c.15-.3.24-.6.24-.93 0-.34-.1-.65-.25-.94z" fill="url(#a)"/><path d="M-794.96 199.65a2 2 0 0 1 2-2h236a2 2 0 0 1 2 2v236a2 2 0 0 1-2 2h-236a2 2 0 0 1-2-2z" fill="#f1f8e9"/><use xlink:href="#b" transform="matrix(1,0,0,1,-778.9545338477706,213.65130030123896) translate(0 16.69921875)"/><use xlink:href="#c" transform="matrix(1,0,0,1,-778.9545338477706,213.65130030123896) translate(137.0478515625 16.69921875)"/><use xlink:href="#d" transform="matrix(1,0,0,1,-778.9545338477706,213.65130030123896) translate(0 37.79296875)"/><path d="M-409.04-127.5a2 2 0 0 1 2-2H1388.6a2 2 0 0 1 2 2v1407.06a2 2 0 0 1-2 2H-407.04a2 2 0 0 1-2-2z" fill="#e3f2fd"/><use xlink:href="#e" transform="matrix(1,0,0,1,-393.036391142507,-113.49691219876104) translate(0 16.69921875)"/><use xlink:href="#f" transform="matrix(1,0,0,1,-393.036391142507,-113.49691219876104) translate(56.7685546875 16.69921875)"/><use xlink:href="#g" transform="matrix(1,0,0,1,-393.036391142507,-113.49691219876104) translate(116.8330078125 16.69921875)"/><path d="M-394.2 398.7a2 2 0 0 1 2-2H906.1a2 2 0 0 1 2 2v396.24a2 2 0 0 1-2 2H-392.2a2 2 0 0 1-2-2z" fill="#dff2ea"/><use xlink:href="#h" transform="matrix(1,0,0,1,-378.20582380787437,412.7109548074386) translate(0 16.69921875)"/><use xlink:href="#i" transform="matrix(1,0,0,1,-378.20582380787437,412.7109548074386) translate(66.7880859375 16.69921875)"/><use xlink:href="#j" transform="matrix(1,0,0,1,-378.20582380787437,412.7109548074386) translate(108.509765625 16.69921875)"/><path d="M-377.45 466.3a2 2 0 0 1 2-2H-35.9a2 2 0 0 1 2 2v304.1a2 2 0 0 1-2 2h-339.55a2 2 0 0 1-2-2z" fill="#fff3e0"/><use xlink:href="#k" transform="matrix(1,0,0,1,-361.449788858389,480.2855049624138) translate(88.08251953125 16.69921875)"/><use xlink:href="#l" transform="matrix(1,0,0,1,-361.449788858389,480.2855049624138) translate(151.81201171875 16.69921875)"/><use xlink:href="#m" transform="matrix(1,0,0,1,-361.449788858389,480.2855049624138) translate(190.11474609375 16.69921875)"/><path d="M77.17 466.3a2 2 0 0 1 2-2h339.56a2 2 0 0 1 2 2v304.1a2 2 0 0 1-2 2H79.17a2 2 0 0 1-2-2z" fill="#fff3e0"/><use xlink:href="#n" transform="matrix(1,0,0,1,93.1692664948647,480.2855049624138) translate(35.080078125 16.69921875)"/><use xlink:href="#o" transform="matrix(1,0,0,1,93.1692664948647,480.2855049624138) translate(112.5029296875 16.69921875)"/><use xlink:href="#p" transform="matrix(1,0,0,1,93.1692664948647,480.2855049624138) translate(171.4599609375 16.69921875)"/><use xlink:href="#q" transform="matrix(1,0,0,1,93.1692664948647,480.2855049624138) translate(187.1044921875 16.69921875)"/><use xlink:href="#r" transform="matrix(1,0,0,1,93.1692664948647,480.2855049624138) translate(237.3427734375 16.69921875)"/><path d="M531.8 466.3a2 2 0 0 1 2-2h339.55a2 2 0 0 1 2 2v304.1a2 2 0 0 1-2 2H533.8a2 2 0 0 1-2-2z" fill="#fff3e0"/><use xlink:href="#s" transform="matrix(1,0,0,1,547.7883218481184,480.2855049624138) translate(110.12109375 16.69921875)"/><use xlink:href="#t" transform="matrix(1,0,0,1,547.7883218481184,480.2855049624138) translate(151.8427734375 16.69921875)"/><path d="M908.12 32.44a2 2 0 0 1 2-2h339.56a2 2 0 0 1 2 2v304.12a2 2 0 0 1-2 2H910.12a2 2 0 0 1-2-2z" fill="#fafafa"/><use xlink:href="#u" transform="matrix(1,0,0,1,924.1216551814518,46.43703202718892) translate(107.84912109375 16.69921875)"/><path d="M-394.2-30.68a2 2 0 0 1 2-2H100a2 2 0 0 1 2 2v396.22a2 2 0 0 1-2 2H-392.2a2 2 0 0 1-2-2z" fill="#dff2ea"/><use xlink:href="#v" transform="matrix(1,0,0,1,-378.20582380787437,-16.68465779163148) translate(0 16.69921875)"/><use xlink:href="#i" transform="matrix(1,0,0,1,-378.20582380787437,-16.68465779163148) translate(40.3505859375 16.69921875)"/><use xlink:href="#j" transform="matrix(1,0,0,1,-378.20582380787437,-16.68465779163148) translate(82.072265625 16.69921875)"/><path d="M-368.3 32.44a2 2 0 0 1 2-2H75.16a2 2 0 0 1 2 2v304.12a2 2 0 0 1-2 2H-366.3a2 2 0 0 1-2-2z" fill="#fff3e0"/><use xlink:href="#w" transform="matrix(1,0,0,1,-352.31152270198044,46.43703202718892) translate(193.00341796875 16.69921875)"/><path d="M-344.3 83.67a2 2 0 0 1 2-2h154.2a2 2 0 0 1 2 2v234.8a2 2 0 0 1-2 2h-154.2a2 2 0 0 1-2-2zM-99.64 83.67a2 2 0 0 1 2-2H56.58a2 2 0 0 1 2 2v234.8a2 2 0 0 1-2 2H-97.65a2 2 0 0 1-2-2z" fill="#fff"/><use xlink:href="#x" transform="matrix(1,0,0,1,-83.64485603531381,97.67170030293187) translate(29.97412109375 16.69921875)"/><use xlink:href="#y" transform="matrix(1,0,0,1,-83.64485603531381,97.67170030293187) translate(69.03271484375 16.69921875)"/><path d="M-393.68 849.82a2 2 0 0 1 2-2H906.65a2 2 0 0 1 2 2v396.23a2 2 0 0 1-2 2H-391.68a2 2 0 0 1-2-2z" fill="#dff2ea"/><use xlink:href="#z" transform="matrix(1,0,0,1,-377.68282523338064,863.8223883114558) translate(0 16.69921875)"/><use xlink:href="#A" transform="matrix(1,0,0,1,-377.68282523338064,863.8223883114558) translate(64.01953125 16.69921875)"/><use xlink:href="#B" transform="matrix(1,0,0,1,-377.68282523338064,863.8223883114558) translate(75.8935546875 16.69921875)"/><path d="M77.17 911.87a2 2 0 0 1 2-2h339.56a2 2 0 0 1 2 2V1216a2 2 0 0 1-2 2H79.17a2 2 0 0 1-2-2z" fill="#fff3e0"/><use xlink:href="#C" transform="matrix(1,0,0,1,93.1692664948647,925.8733121813113) translate(121.18212890625 16.69921875)"/><g filter="url(#D)"><path d="M-718.96 298.5a2 2 0 0 1 2-2h84a2 2 0 0 1 2 2v84a2 2 0 0 1-2 2h-84a2 2 0 0 1-2-2z" fill="#fff"/><path d="M-662.96 337.5c2.5 0 4.6-.88 6.37-2.63 1.76-1.76 2.65-3.88 2.65-6.37 0-2.48-.9-4.6-2.64-6.36-1.75-1.75-3.87-2.64-6.36-2.64-2.48 0-4.6.88-6.36 2.64-1.75 1.76-2.63 3.88-2.63 6.36 0 2.5.88 4.6 2.63 6.37 1.76 1.75 3.88 2.63 6.36 2.63zm-24 0c2.5 0 4.6-.88 6.37-2.63 1.76-1.76 2.64-3.88 2.64-6.37 0-2.48-.88-4.6-2.63-6.36-1.75-1.75-3.87-2.64-6.35-2.64-2.5 0-4.6.88-6.37 2.64-1.75 1.76-2.64 3.88-2.64 6.36 0 2.5.9 4.6 2.64 6.37 1.76 1.75 3.88 2.63 6.37 2.63zm0 6c-7 0-21 3.5-21 10.5v7.5h42V354c0-7-14-10.5-21-10.5zm24 0c-.87 0-1.86.06-2.9.15 3.47 2.52 5.9 5.9 5.9 10.35v7.5h18V354c0-7-14-10.5-21-10.5zm0 0" fill="#757575"/></g><path d="M-630.46 340.5h114.26a12 12 0 0 1 12 12v253.85a12 12 0 0 0 12 12h98.37" stroke="#333" fill="none"/><path d="M-630.44 340.98h-.5v-.95h.5z" stroke="#333" stroke-width=".05" fill="#333"/><path d="M-379.07 618.35l-14.26 4.63v-9.27z" stroke="#333" fill="#333"/><path d="M-269.67 561h128v44.68h-128V561z" stroke="#000" stroke-opacity="0" fill="#aecbfa"/><path d="M-154.47 561h12.8v44.68h-12.8V561z" stroke="#000" stroke-opacity="0" fill="#669df6"/><path d="M-141.67 561h-12.8v44.68l12.8-44.68z" stroke="#000" stroke-opacity="0" fill="#4285f4"/><path d="M-269.67 561h12.8v44.68h-12.8V561z" stroke="#000" stroke-opacity="0" fill="#669df6"/><path d="M-244.07 580.18h38.4v6.37h-38.4v-6.37zM-176.87 573.75c6.4 0 9.6 3.2 9.6 9.6 0 6.38-3.2 9.58-9.6 9.58-6.4 0-9.6-3.2-9.6-9.6 0-6.37 3.2-9.58 9.6-9.58z" stroke="#000" stroke-opacity="0" fill="#fff"/><path d="M-269.67 618.43h128v44.68h-128v-44.67z" stroke="#000" stroke-opacity="0" fill="#aecbfa"/><path d="M-154.47 618.43h12.8v44.68h-12.8v-44.67z" stroke="#000" stroke-opacity="0" fill="#669df6"/><path d="M-141.67 618.43h-12.8v44.68l12.8-44.67z" stroke="#000" stroke-opacity="0" fill="#4285f4"/><path d="M-269.67 618.43h12.8v44.68h-12.8v-44.67z" stroke="#000" stroke-opacity="0" fill="#669df6"/><path d="M-244.07 637.5h38.4v6.38h-38.4v-6.38zM-176.87 631.18c6.4 0 9.6 3.2 9.6 9.6 0 6.37-3.2 9.58-9.6 9.58-6.4 0-9.6-3.2-9.6-9.6 0-6.38 3.2-9.58 9.6-9.58z" stroke="#000" stroke-opacity="0" fill="#fff"/><path d="M-268.4 562.02v99.96h125.45v-99.96z" stroke="#000" stroke-opacity="0" fill-opacity="0"/><use xlink:href="#E" transform="matrix(1,0,0,1,-269.6715994897422,668.0032400381854) translate(35.04938271604939 17.77777777777778)"/><use xlink:href="#F" transform="matrix(1,0,0,1,-269.6715994897422,668.0032400381854) translate(25.141975308641975 44.44444444444444)"/><path d="M286.45 630.34l-65.14 33.42-6.27-9.55 65.2-33.46 6.22 9.6z" stroke="#000" stroke-opacity="0" fill="#aecbfa"/><path d="M221.04 652.95v-66.9H233v58.87l-11.96 8.03z" stroke="#000" stroke-opacity="0" fill="#aecbfa"/><path d="M233.36 604.85l-1.7-13.47 65.16 33.43-6.2 9.6-57.26-29.55z" stroke="#000" stroke-opacity="0" fill="#aecbfa"/><path d="M264.18 608.04l-32.5-16.65 1.65 13.4 9.65 4.87c7.25 2.3 14.5 1.75 21.2-1.63z" stroke="#000" stroke-opacity="0" fill="#4285f4"/><path d="M224.16 596.8c-6.68-10.3-2.7-23.45 8.85-29.4 11.57-5.92 26.38-2.4 33.06 7.88 6.68 10.28 2.7 23.45-8.86 29.38-3.87 1.98-7.64 2.88-12.1 2.88-8.9-.04-16.5-3.9-20.94-10.75zm31.16-15.92c-2.18-3.36-5.86-5.25-10.16-5.25h-.05c-6.48 0-11.7 4.64-11.7 10.4-.05.57-.05 1 0 1.56.43 5.75 6.1 10.1 12.58 9.66 6.48-.43 11.37-5.46 10.9-11.22 0-1.9-.5-3.53-1.56-5.16z" stroke="#000" stroke-opacity="0" fill="#aecbfa"/><path d="M221.04 623.25v29.7l11.97-8.02v-9.27c-1.7-5.76-5.83-10.04-11.96-12.4zM257.4 645.26l28.92-14.85-14.14-5.67-8 4.56c-4.64 4.65-6.87 10-6.8 16.25z" stroke="#000" stroke-opacity="0" fill="#4285f4"/><path d="M188.2 656.05c-6.7-10.27-2.77-23.38 8.75-29.33.05-.04.05-.04.1-.04 5.75-3.02 11.85-3.75 18.28-2.16 12.87 3.02 20.6 14.8 17.18 26.26-3.38 11.52-16.6 18.38-29.5 15.32-6.5-1.5-11.42-4.88-14.8-10.05zm31-16c-1.5-2.6-3.92-4.32-7.06-5.1-3.2-.73-6.2-.38-9 1.1-5.56 2.88-7.45 9.26-4.2 14.22 3.28 5 10.44 6.68 16 3.8 5.62-2.9 7.5-9.28 4.26-14.24zM263.9 654.05c-4.42-6.82-4.42-14.58 0-21.4 6.7-10.3 21.42-13.8 33.03-7.94 11.52 5.97 15.5 19.1 8.8 29.35-6.67 10.3-21.48 13.78-33.04 7.8-3.83-1.96-6.6-4.4-8.8-7.8zM295 638.1c-1.12-1.63-2.47-2.84-4.3-3.82-5.62-2.83-12.78-1.12-16.02 3.86-2.13 3.35-2.13 7.08 0 10.42 2.66 4.17 7.98 6.1 13.2 4.8 3.15-.72 5.52-2.3 7.12-4.8 2.13-3.34 2.13-7.12 0-10.46z" stroke="#000" stroke-opacity="0" fill="#aecbfa"/><path d="M232.95 641.45s-14.98 11.43-17.92 12.86l18.3-9.4c-.04-1.24-.15-2.25-.38-3.45zM237.1 606.52s-3.77-18.66-3.77-20.48v18.72c1.27.65 2.4 1.1 3.78 1.53zM270.07 626.26s17.66 6.54 20.6 8.02l-18.3-9.33c-.86.37-1.56.76-2.3 1.3z" stroke="#000" stroke-opacity="0" fill="#669df6"/><path d="M223.35 595.14v56.9l51.2-28.45z" fill-opacity="0"/><use xlink:href="#G" transform="matrix(1,0,0,1,184.94745586355515,679.7932400381853) translate(19 17.77777777777778)"/><path d="M-33.4 618.35H60.8" stroke="#3a414a" fill="none"/><path d="M-33.38 618.82h-.5v-.95h.5z" stroke="#3a414a" stroke-width=".05" fill="#3a414a"/><path d="M75.55 618.35l-14.27 4.63v-9.27z" stroke="#3a414a" fill="#3a414a"/><path d="M669.77 610.35v16.8c2.78 4.77 6.2 8.25 10.95 11.1v-27.9z" stroke="#000" stroke-opacity="0" fill="#aecbfa"/><path d="M690 594.86V643c2.47.3 4.58.45 7.07.4 2.23.15 4.14.15 6.37 0v-48.54z" stroke="#000" stroke-opacity="0" fill="#669df6"/><path d="M714.06 617v21c4.78-3.05 8.17-6.66 10.88-11.6V617z" stroke="#000" stroke-opacity="0" fill="#aecbfa"/><path d="M740.32 645.6l-9.06 9.05-.03.04c-1.04 1.07-1.04 2.77.03 3.8l22.6 22.62c1.05 1.04 2.76 1.04 3.8 0l9.13-9.13c1.03-1.05 1.03-2.76 0-3.8l-22.62-22.6-.04-.04c-1.07-1.04-2.78-1.04-3.82.04" stroke="#000" stroke-opacity="0" fill="#4285f4"/><path d="M697.17 553.9c-31.8 0-57.6 25.8-57.6 57.6s25.8 57.6 57.6 57.6 57.6-25.8 57.6-57.6-25.8-57.6-57.6-57.6m0 100.45c-23.62-.1-42.74-19.24-42.74-42.85.1-23.62 19.24-42.74 42.85-42.74 23.62.1 42.63 19.12 42.74 42.74 0 23.6-19.12 42.74-42.74 42.85h-.1" stroke="#000" stroke-opacity="0" fill="#669df6"/><use xlink:href="#H" transform="matrix(1,0,0,1,639.5665112167651,686.8982400381853) translate(20.23456790123457 17.77777777777778)"/><path d="M421.23 618.35h94.17" stroke="#3a414a" fill="none"/><path d="M421.24 618.82h-.5v-.95h.5z" stroke="#3a414a" stroke-width=".05" fill="#3a414a"/><path d="M530.17 618.35l-14.26 4.63v-9.27z" stroke="#3a414a" fill="#3a414a"/><path d="M1079.45 120.5c-6.42 0-11.22 4.83-11.22 11.25 0 2.12.55 4.27 2.13 6.42l4.82-4.83v-1.6c0-2.67 2.12-4.82 4.8-4.82 2.66 0 4.8 2.15 4.8 4.83 0 2.66-2.14 4.8-4.8 4.8h-1.62l-4.8 4.28c5.35 3.2 12.3 2.14 15.48-3.2 3.2-5.35 2.14-12.3-3.2-15.52-1.6-1.07-3.72-1.6-6.4-1.6z" stroke="#000" stroke-opacity="0" stroke-width=".89" fill="#d2e3fc"/><path d="M1075.2 153.06c0-3.74-1.08-7.47-3.2-10.67l-6.4 6.4c.53 1.57 1.06 2.65 1.06 4.26 0 2.66-1.06 4.8-2.66 6.4l3.2 8.53c5.32-3.2 8-9.08 8-14.94z" stroke="#000" stroke-opacity="0" stroke-width=".89" fill="#5e97f6"/><path d="M1058.12 162.16c-4.8 0-9.08-3.73-9.08-8.56 0-4.78 3.73-9.04 8.55-9.04 1.6 0 3.73.52 5.34 1.58l6.4-5.88c-3.72-3.2-7.48-4.78-11.75-4.78-9.62 0-17.65 8-17.65 17.6 0 9.6 7.5 17.6 17.64 17.6 1.05 0 2.67 0 3.73-.53l-3.2-8z" stroke="#000" stroke-opacity="0" stroke-width=".89" fill="#5e97f6"/><path d="M1080.05 169.14c-3.8 0-7.52.55-11.24 1.6l4.84 11.73c2.13 0 4.27-.47 6.4-.47 14.97 0 26.7 12.22 26.7 26.66 0 14.92-12.28 26.66-26.7 26.66-14.96 0-26.75-12.22-26.75-26.66 0-10.16 5.37-19.2 14.4-23.5l-4.76-11.74c-19.8 9.6-27.8 33.65-18.2 52.86 9.65 19.76 33.64 27.77 52.9 18.17 19.78-9.6 27.78-33.65 18.2-52.85-6.97-13.4-20.83-22.46-35.8-22.46z" stroke="#000" stroke-opacity="0" stroke-width=".89" fill="#4285f4"/><path d="M1039.95 120.5v128h79.9v-128z" stroke="#000" stroke-opacity="0" fill-opacity="0"/><use xlink:href="#I" transform="matrix(1,0,0,1,1039.9498445500985,253.49866505759042) translate(6.080246913580247 17.77777777777778)"/><path d="M875.85 618.35h5.07m5.08 0h10.16m5.08 0h10.15m5.07 0h10.16m5.08 0h10.16m5.08 0h10.16m5.08 0h10.15m5.08 0h10.17m5.08 0h10.15m5.08 0h10.16m5.08 0h10.15m5.08 0h10.16m5.1 0h10.14m5.08 0h5.08l.94-.08.9-.22.88-.36.8-.5.72-.6.6-.73.5-.8.37-.87.23-.9.07-.95v-5.05m0-5.05v-10.1m0-5.04v-10.08m0-5.05v-10.1m0-5.04v-10.1m0-5.04v-10.1m0-5.05v-10.1m0-5.05v-10.1m0-5.04v-10.1m0-5.04v-10.1m0-5.04v-10.1m0-5.04v-10.1m0-5.04v-10.1m0-5.04v-10.1m0-5.04v-10.1m0-5.05v-10.1m0-5.04v-10.1m0-5.04v-5.06" stroke="#3a414a" fill="none"/><path d="M875.86 618.82h-.5v-.95h.5z" stroke="#3a414a" stroke-width=".05" fill="#3a414a"/><path d="M1079.9 340.18l4.63 14.26h-9.26z" stroke="#3a414a" fill="#3a414a"/><path d="M-5.87 179.8l-7.82 7.6c4.6 3.85 5.15 10.58 1.22 15.04-2.1 2.42-4.86 3.7-8.1 3.74-3.46-.03-6.38-1.4-8.52-4l-7.82 7.63c.9 1.07 1.75 1.9 2.84 2.8 9.3 7.6 23.16 6.4 30.94-2.67 7.78-9.04 6.57-22.53-2.73-30.13z" stroke="#000" stroke-opacity="0" fill="#4285f4"/><path d="M-20.47 156.5c-22.08 0-40 17.47-40 39s17.92 39 40 39 40-17.47 40-39-17.92-39-40-39m0 67c-15.76.08-28.48-12.32-28.56-27.7 0-15.36 12.72-27.76 28.4-27.84 15.76 0 28.56 12.4 28.56 27.7v.15c0 15.3-12.72 27.7-28.4 27.7" stroke="#000" stroke-opacity="0" fill="#aecbfa"/><path d="M-20.53 154.5c24.73 0 44.8 17.92 44.8 40s-20.07 40-44.8 40c-24.73 0-44.8-17.92-44.8-40s20.07-40 44.8-40z" fill-opacity="0"/><path d="M41.04 191.65l-16.4-5.05c.76 3.3 1.08 6.16 1.1 9.55-.02 2.38-.17 4.4-.5 6.75h15.8c1.37-.18 2.37-1.27 2.43-2.63v-6.24c-.06-1.35-1.06-2.44-2.43-2.62M-20.53 151.87c3.4 0 6.27.27 9.6.93l-5.9-15.92c-.44-1.38-1.33-2.38-2.68-2.38h-2.44c-1.37.07-2.48 1.04-2.7 2.38l-5.1 15.86c3.2-.62 5.95-.88 9.2-.88M-66.8 196.12c0-3.37.33-6.22 1.08-9.52l-16.4 5.05c-1.36.18-2.36 1.27-2.4 2.6v6.24c.04 1.33 1.04 2.42 2.4 2.6h15.82c-.34-2.34-.5-4.36-.5-6.73" stroke="#000" stroke-opacity="0" fill="#669df6"/><path d="M-20.53 179.8c-8.83 0-16 7-16 15.6s7.17 15.6 16 15.6 16-7 16-15.6-7.17-15.6-16-15.6zm0 23.4c-4.42 0-8-3.5-8-7.8s3.58-7.8 8-7.8c4.4 0 8 3.5 8 7.8.03 4.3-3.52 7.83-7.94 7.86h-.06z" stroke="#000" stroke-opacity="0" fill="#aecbfa"/><use xlink:href="#J" transform="matrix(1,0,0,1,-84.53333333333364,239.49866505759042) translate(6.623456790123456 17.77777777777778)"/><use xlink:href="#K" transform="matrix(1,0,0,1,-84.53333333333364,239.49866505759042) translate(52.30246913580247 17.77777777777778)"/><path d="M-270.14 120.5c4.6 0 8.45 2.56 11.52 6.78 2.56 3.46 4.87 8.2 6.66 14.08 3.58 11.4 5.63 26.75 5.63 43.14 0 16.38-2.05 31.74-5.63 43.13-1.8 5.9-4.1 10.63-6.66 14.1-3.07 4.2-6.9 6.77-11.52 6.77-10.36 0-16.76-9.1-20.22-24.45-.13-.5-.13-1.02 0-1.4H-280c1.42 6.14 3.2 12.28 5.13 14.33 1.28 1.4 2.7 1.92 4.73 1.92.13 0 .13 0 .26-.13.13 0 .26-.13.5-.26.65-.37 1.42-1.14 2.2-2.16 1.78-2.56 3.57-6.4 5.24-11.4 3.2-10.5 5.12-24.95 5.12-40.44 0-15.5-1.92-29.95-5.12-40.45-1.67-5-3.46-8.83-5.25-11.4-.76-1.02-1.53-1.78-2.17-2.17-.25-.13-.38-.25-.5-.25-.14-.13-.14-.13-.27-.13-1.66 0-3.2.9-4.73 2.94-2.18 2.82-3.97 7.3-5.38 13.7h-10.62c1.66-8.58 4.1-14.85 7.42-19.2 3.46-4.6 8.07-7.04 13.3-7.04zm1.4 79.87v9.6h-50.68c-2.68 0-4.86-2.18-4.86-4.86s2.18-4.73 4.86-4.73h50.7zm55.56-10.24c2.7 0 4.87 2.05 4.87 4.74 0 2.7-2.2 4.86-4.88 4.86h-23.93c.37-3.2.63-6.4.88-9.6h23.04zm-55.55-10.24v9.6h-62.72c-2.7 0-4.86-2.2-4.86-4.87 0-2.7 2.16-4.74 4.85-4.74h62.72zm32-10.38l23.55.13c2.7 0 4.87 2.05 4.87 4.74 0 2.42-1.8 4.47-4.24 4.72l-.64.13h-22.9c-.14-3.33-.4-6.53-.65-9.73zm-32-10.1v9.6h-50.7c-2.67 0-4.85-2.2-4.85-4.87 0-2.44 1.92-4.48 4.22-4.74h51.34z" stroke="#000" stroke-opacity="0" fill="#4285f4"/><path d="M-336.3 158.9v51.2h128v-51.2z" stroke="#000" stroke-opacity="0" fill-opacity="0"/><path d="M-272.3 120.5c7.05 0 12.8 28.67 12.8 64s-5.75 64-12.8 64c-7.08 0-12.8-28.67-12.8-64s5.72-64 12.8-64z" fill-opacity="0"/><use xlink:href="#L" transform="matrix(1,0,0,1,-336.3115227019805,253.49866505759042) translate(14.061728395061735 17.77777777777778)"/><use xlink:href="#M" transform="matrix(1,0,0,1,-336.3115227019805,253.49866505759042) translate(78.1358024691358 17.77777777777778)"/><use xlink:href="#N" transform="matrix(1,0,0,1,-336.3115227019805,253.49866505759042) translate(20.203703703703702 44.44444444444444)"/><path d="M-185.6 201.07h69.57" stroke="#3a414a" fill="none"/><path d="M-185.58 201.54h-.5v-.95h.5z" stroke="#3a414a" stroke-width=".05" fill="#3a414a"/><path d="M-101.26 201.07l-14.27 4.63v-9.27z" stroke="#3a414a" fill="#3a414a"/><path d="M77.67 184.5h619.9a6 6 0 0 1 6 6v257.4" stroke="#3a414a" fill="none"/><path d="M77.68 184.97h-.5v-.95h.5z" stroke="#3a414a" stroke-width=".05" fill="#3a414a"/><path d="M703.57 462.67l-4.64-14.27h9.27z" stroke="#3a414a" fill="#3a414a"/><path d="M1143.9 1009.68v76.5h-25.34c-.64 0-1.28-.53-1.28-1.22v-7.27c0-.7.64-1.23 1.28-1.23h15.74v-57.07h-15.74c-.64 0-1.28-.53-1.28-1.22v-7.27c0-.68.64-1.22 1.28-1.22h25.34zm-100.48 0c.77 0 1.28.54 1.28 1.23v7.28c0 .7-.5 1.22-1.28 1.22h-17.92v57.07h17.92c.64 0 1.15.54 1.15 1.22v7.26c0 .7-.5 1.22-1.15 1.22h-27.52v-76.5h27.52zm71.17 24.87v9.4l.37.16 8.7-3.05 1.8 5.28-8.7 2.98-.26.62 6.02 8.1-4.48 3.3-5.88-8.1h-.52l-5.88 8.1-4.48-3.3 5.88-8.1-.12-.6-8.7-3 1.78-5.27 8.58 3.06.38-.14v-9.4h5.5zm-65.42 0v9.33l.38.15 8.58-3.06 1.8 5.2-8.7 3-.27.6 6.02 8.03-4.5 3.3-5.88-8.04h-.5l-5.9 8.03-4.48-3.3 5.9-8.03-.14-.6-8.7-3 1.8-5.2 8.56 3.06.52-.15v-9.33h5.5zm32.64 0v9.33l.38.15 8.58-3.06 1.8 5.2-8.7 3-.27.6 6.03 8.03-4.48 3.3-5.9-8.04h-.5l-5.9 8.03-4.47-3.3 5.9-8.03-.14-.6-8.7-3 1.8-5.2 8.56 3.06.4-.15v-9.33h5.62z" stroke="#000" stroke-opacity="0" fill="#4285f4"/><path d="M1017.18 1010.45v74.97h125.44v-74.97z" stroke="#000" stroke-opacity="0" fill-opacity="0"/><use xlink:href="#O" transform="matrix(1,0,0,1,1015.8998445500986,1091.1849452117128) translate(31.9320987654321 17.77777777777778)"/><use xlink:href="#P" transform="matrix(1,0,0,1,1015.8998445500986,1091.1849452117128) translate(20.234567901234563 44.44444444444444)"/><path d="M-630.46 340.5h120.26a6 6 0 0 0 6-6V207.07a6 6 0 0 1 6-6h113.5" stroke="#3a414a" fill="none"/><path d="M-630.44 340.98h-.5v-.95h.5z" stroke="#3a414a" stroke-width=".05" fill="#3a414a"/><path d="M-369.93 201.07l-14.26 4.63v-9.27z" stroke="#3a414a" fill="#3a414a"/><path d="M184.95 1084.2l19.2 13.87v-68.27l-19.2 13.8v40.6z" stroke="#000" stroke-opacity="0" fill="#669df6"/><path d="M184.95 1052.56l19.2-11.38v-11.38l-19.2 22.76zM204.15 1098.07v-11.38l-19.2-11.4 19.2 22.77z" stroke="#000" stroke-opacity="0" fill="#4285f4"/><path d="M223.35 1109.45l-38.4-34.14v22.77l25.6 22.76 12.8-11.38zM210.44 1007.04l-25.5 22.7.08 22.82 38.2-34.14-12.78-11.38z" stroke="#000" stroke-opacity="0" fill="#aecbfa"/><path d="M312.95 1043.66l-19.2-13.86v68.27l19.2-13.8v-40.6z" stroke="#000" stroke-opacity="0" fill="#669df6"/><path d="M312.95 1075.3l-19.2 11.4v11.37l19.2-22.76zM293.75 1029.8v11.38l19.2 11.38-19.2-22.76z" stroke="#000" stroke-opacity="0" fill="#4285f4"/><path d="M274.55 1018.42l38.4 34.14v-22.76l-25.62-22.76-12.78 11.38zM287.46 1120.83l25.5-22.7-.1-22.82-38.19 34.15 12.8 11.38zM229.75 1063.93c0 3.15-2.87 5.7-6.4 5.7-3.53 0-6.4-2.55-6.4-5.7 0-3.14 2.87-5.7 6.4-5.7 3.53 0 6.4 2.56 6.4 5.7zM255.35 1063.93c0 3.15-2.87 5.7-6.4 5.7-3.53 0-6.4-2.55-6.4-5.7 0-3.14 2.86-5.7 6.4-5.7 3.53 0 6.4 2.56 6.4 5.7zM280.82 1063.93c0 3.15-2.87 5.7-6.4 5.7-3.53 0-6.4-2.55-6.4-5.7 0-3.14 2.87-5.7 6.4-5.7 3.53 0 6.4 2.56 6.4 5.7z" stroke="#000" stroke-opacity="0" fill="#aecbfa"/><path d="M204.15 1012.73v102.4h89.6v-102.4z" stroke="#000" stroke-opacity="0" fill-opacity="0"/><g><use xlink:href="#Q" transform="matrix(1,0,0,1,184.94745586355518,1125.8299452117128) translate(35.04938271604939 17.77777777777778)"/><use xlink:href="#R" transform="matrix(1,0,0,1,184.94745586355518,1125.8299452117128) translate(15.913580246913575 44.44444444444444)"/></g><path d="M703.57 788.8v4.98m0 4.98v9.97m0 4.98v9.98m0 5v9.95m0 5v9.96m0 4.97v9.97m0 4.98v9.97m0 4.98v9.96m0 5v9.96m0 4.98v9.97m0 4.98v9.97m0 4.98v9.97m0 5v9.96m0 5v9.96m0 4.98v9.97m0 5v9.96m0 5v9.95m0 5v9.97m0 4.98v4.98l-.08.94-.23.92-.36.86-.48.8-.6.72-.73.6-.8.5-.88.36-.9.22-.95.08h-5.1m-5.12 0h-10.2m-5.12 0h-10.2m-5.12 0h-10.2m-5.1 0h-10.22m-5.1 0h-10.23m-5.1 0h-10.22m-5.1 0H585.2m-5.1 0h-10.2m-5.12 0h-10.2m-5.12 0h-10.2m-5.12 0h-10.2m-5.12 0h-10.2m-5.12 0h-10.2m-5.12 0h-10.22m-5.1 0h-10.22m-5.1 0h-10.22m-5.1 0h-5.1" stroke="#3a414a" fill="none"/><path d="M703.57 774.03l4.63 14.26h-9.27zM422.34 1063.93l14.27-4.63v9.27z" stroke="#3a414a" fill="#3a414a"/><path d="M60.78 1063.93h-5.1m-5.1 0H40.35m-5.1 0H25.03m-5.1 0H9.7m-5.1 0H-5.6m-5.1 0h-10.23m-5.1 0h-10.22m-5.1 0h-10.22m-5.1 0H-66.9m-5.1 0h-10.2m-5.12 0h-10.2m-5.12 0h-10.2m-5.12 0h-10.2m-5.12 0h-10.22m-5.1 0h-10.22m-5.1 0h-10.22m-5.1 0h-10.22m-5.1 0h-5.1l-.95-.07-.93-.22-.87-.36-.8-.5-.7-.6-.63-.72-.5-.8-.35-.87-.22-.93-.07-.93v-5m0-4.97V1038m0-5v-9.95m0-5v-9.96m0-5v-9.96m0-4.98v-9.97m0-5v-9.96m0-5v-9.96m0-4.98v-9.97m0-4.98v-9.97m0-4.98v-9.97m0-5v-9.95m0-5v-9.96m0-4.98v-9.97m0-4.98v-9.98m0-5v-9.95m0-5v-9.96m0-4.97v-9.97m0-4.98v-5" stroke="#3a414a" fill="none"/><path d="M75.55 1063.93l-14.27 4.64v-9.27zM-205.67 774.03l4.63 14.26h-9.27z" stroke="#3a414a" fill="#3a414a"/><path d="M434 947.32c-.7 0-1.32-.26-1.84-.77l-5.26-5.25c-.94-1.1-.82-2.76.3-3.7 1-.87 2.42-.87 3.42 0l5.25 5.25c1.03 1.03 1.03 2.68 0 3.7-.5.52-1.14.77-1.86.77zM391.85 947.32c-1.46 0-2.65-1.2-2.64-2.65 0-.73.28-1.34.8-1.86l5.27-5.26c1.02-1.03 2.7-1.04 3.72-.02v.02c1.03 1.03 1.03 2.7 0 3.72l-5.26 5.27c-.52.53-1.16.8-1.9.8z" stroke="#000" stroke-opacity="0" fill="#669df6"/><path d="M395.72 937.14l-3.22 3.23c1.2 1.42 2.3 2.54 3.75 3.73l3.2-3.23zM433.3 940.26l-2.64-2.64c-.2-.16-.38-.3-.6-.4l-3.54 3.5c.13.24.25.42.42.62l2.63 2.63c1.43-1.18 2.54-2.3 3.72-3.7z" stroke="#000" stroke-opacity="0" fill="#4285f4"/><path d="M412.93 947.32c-13.1 0-23.72-10.62-23.72-23.7 0-13.1 10.64-23.72 23.73-23.72 13.1 0 23.7 10.62 23.7 23.7 0 13.1-10.6 23.72-23.7 23.72zm0-5.26c10.2 0 18.45-8.25 18.45-18.45s-8.25-18.44-18.45-18.44-18.45 8.25-18.45 18.45 8.25 18.46 18.45 18.46z" stroke="#000" stroke-opacity="0" fill="#669df6"/><path d="M412.9 936.83c7.28 0 13.18-5.9 13.18-13.2 0-7.27-5.9-13.17-13.17-13.17v13.18l-10.72 7.67c2.56 3.6 6.33 5.53 10.73 5.53z" stroke="#000" stroke-opacity="0" fill="#4285f4"/><path d="M391.87 908c-1.46 0-2.64-1.17-2.66-2.63 0-.74.27-1.37.8-1.9l5.27-5.26c1.02-1.02 2.7-1.03 3.72 0 1.03 1.04 1.03 2.7 0 3.73l-5.26 5.27c-.5.53-1.14.8-1.87.8zM434 908c-.74 0-1.37-.27-1.88-.8l-5.27-5.27c-1.02-1.04-1.02-2.7 0-3.72 1.03-1.02 2.7-1.03 3.73 0l5.28 5.28c1.03 1.03 1.04 2.7.02 3.73-.53.54-1.15.8-1.9.8z" stroke="#000" stroke-opacity="0" fill="#aecbfa"/><path d="M412.93 898.32c12.2 0 22.13 9.9 22.13 22.13 0 12.2-9.92 22.13-22.13 22.13-12.22 0-22.13-9.92-22.13-22.13 0-12.22 9.9-22.13 22.13-22.13z" fill-opacity="0"/><g><use xlink:href="#Q" transform="matrix(1,0,0,1,381.31112014568225,960.2267407094962) translate(3.0493827160493865 17.77777777777778)"/><use xlink:href="#S" transform="matrix(1,0,0,1,381.31112014568225,960.2267407094962) translate(-17.938271604938272 44.44444444444444)"/></g><defs><radialGradient gradientUnits="userSpaceOnUse" id="a" fx="-218351.87" fy="402648.98" cx="219325.75" cy="-401530.15" r="20279.51"><stop offset="0%" stop-color="#fff" stop-opacity=".1"/><stop offset="100%" stop-color="#fff" stop-opacity="0"/></radialGradient><path fill="#333" d="M375 0H183v-1456h192V0" id="T"/><path fill="#333" d="M589-945c-131 0-219 81-264 174V0H140v-1082h175l6 136c83-104 191-156 324-156 229 0 346 129 346 387V0H806v-716c-2-153-65-229-217-229" id="U"/><path fill="#333" d="M456 20C285 20 205-92 206-268v-671H9v-143h197v-262h185v262h202v143H391v671c-9 125 92 149 207 118V0c-49 13-96 20-142 20" id="V"/><path fill="#333" d="M599-131c141 0 220-65 285-146l113 88C906-50 770 20 589 20 281 21 93-214 93-545c0-223 93-397 233-485 74-48 154-72 240-72 300 2 449 218 445 537v77H278c0 197 129 357 321 357zm227-509c-3-180-88-310-260-310-170 0-264 140-282 310h542" id="W"/><path fill="#333" d="M663-916c-163-27-288 18-338 148V0H140v-1082h180l3 125c61-97 147-145 258-145 36 0 63 5 82 14v172" id="X"/><path fill="#333" d="M561-1102c238-4 403 126 403 351v498c0 99 13 178 38 237V0H808c-11-21-19-59-26-114C696-25 593 20 474 20c-199 0-368-130-365-320 4-251 214-359 490-356h180v-85c-1-135-86-212-229-212-115 0-232 67-233 171H131c20-205 206-316 430-320zM294-326c0 117 90 185 207 185 122 0 239-75 278-162v-222H634c-227 0-340 66-340 199" id="Y"/><path fill="#333" d="M341 0H156v-1536h185V0" id="Z"/><path fill="#333" d="M177 125H18l608-1581h158" id="aa"/><path fill="#333" d="M992-673H361v516h733V0H169v-1456h915v158H361v468h631v157" id="ab"/><path fill="#333" d="M503-687l240-395h216L605-547 970 0H756L506-405 256 0H41l365-547-354-535h214" id="ac"/><g id="b"><use transform="matrix(0.0087890625,0,0,0.0087890625,0,0)" xlink:href="#T"/><use transform="matrix(0.0087890625,0,0,0.0087890625,4.8955078125,0)" xlink:href="#U"/><use transform="matrix(0.0087890625,0,0,0.0087890625,14.8271484375,0)" xlink:href="#V"/><use transform="matrix(0.0087890625,0,0,0.0087890625,20.70703125,0)" xlink:href="#W"/><use transform="matrix(0.0087890625,0,0,0.0087890625,30.2431640625,0)" xlink:href="#X"/><use transform="matrix(0.0087890625,0,0,0.0087890625,36.333984375,0)" xlink:href="#U"/><use transform="matrix(0.0087890625,0,0,0.0087890625,46.265625,0)" xlink:href="#Y"/><use transform="matrix(0.0087890625,0,0,0.0087890625,56.056640625,0)" xlink:href="#Z"/><use transform="matrix(0.0087890625,0,0,0.0087890625,60.4248046875,0)" xlink:href="#aa"/><use transform="matrix(0.0087890625,0,0,0.0087890625,67.8427734375,0)" xlink:href="#ab"/><use transform="matrix(0.0087890625,0,0,0.0087890625,78.0732421875,0)" xlink:href="#ac"/><use transform="matrix(0.0087890625,0,0,0.0087890625,86.994140625,0)" xlink:href="#V"/><use transform="matrix(0.0087890625,0,0,0.0087890625,92.8740234375,0)" xlink:href="#W"/><use transform="matrix(0.0087890625,0,0,0.0087890625,102.41015625,0)" xlink:href="#X"/><use transform="matrix(0.0087890625,0,0,0.0087890625,108.5009765625,0)" xlink:href="#U"/><use transform="matrix(0.0087890625,0,0,0.0087890625,118.4326171875,0)" xlink:href="#Y"/><use transform="matrix(0.0087890625,0,0,0.0087890625,128.2236328125,0)" xlink:href="#Z"/></g><path fill="#333" d="M520 20C244 20 95-247 95-550c0-298 151-550 427-552 127 0 227 43 301 130v-564h185V0H838l-9-116C755-25 652 20 520 20zm48-965c-210 0-288 177-288 416 0 218 87 392 286 392 117 0 203-53 257-158v-497c-55-102-140-153-255-153" id="ad"/><g id="c"><use transform="matrix(0.0087890625,0,0,0.0087890625,0,0)" xlink:href="#ab"/><use transform="matrix(0.0087890625,0,0,0.0087890625,10.23046875,0)" xlink:href="#U"/><use transform="matrix(0.0087890625,0,0,0.0087890625,20.162109375,0)" xlink:href="#ad"/></g><path fill="#333" d="M665-137c214 0 337-121 336-332v-987h193v990c-3 300-218 486-529 486-309 0-526-181-525-484v-992h190v986c-1 210 123 333 335 333" id="ae"/><path fill="#333" d="M538-131c121 0 232-49 232-156 0-50-20-88-56-117-73-60-334-92-420-143-92-55-162-110-162-238 0-190 192-317 400-317 223 0 414 129 413 338H759c0-108-110-186-227-186-119 0-215 53-215 159 0 45 18 78 53 101 76 52 331 90 416 139 98 57 169 115 169 251C955-92 760 20 538 20c-176 0-314-68-386-174-38-55-57-115-57-179h185c6 129 116 202 258 202" id="af"/><g id="d"><use transform="matrix(0.0087890625,0,0,0.0087890625,0,0)" xlink:href="#ae"/><use transform="matrix(0.0087890625,0,0,0.0087890625,11.671875,0)" xlink:href="#af"/><use transform="matrix(0.0087890625,0,0,0.0087890625,20.953125,0)" xlink:href="#W"/><use transform="matrix(0.0087890625,0,0,0.0087890625,30.4892578125,0)" xlink:href="#X"/></g><path fill="#333" d="M651-255l416-1201h210L737 0H567L28-1456h209" id="ag"/><path fill="#333" d="M341 0H156v-1082h185V0zm-91-1264c-68 0-108-42-109-105 0-62 41-107 109-107s110 44 110 107-42 105-110 105" id="ah"/><path fill="#333" d="M491 20c-241-1-355-148-355-398v-704h185v699c0 164 67 246 200 246 141 0 235-53 282-158v-787h185V0H812l-4-107C736-22 630 20 491 20" id="ai"/><g id="e"><use transform="matrix(0.0087890625,0,0,0.0087890625,0,0)" xlink:href="#ag"/><use transform="matrix(0.0087890625,0,0,0.0087890625,11.4521484375,0)" xlink:href="#ah"/><use transform="matrix(0.0087890625,0,0,0.0087890625,15.8203125,0)" xlink:href="#X"/><use transform="matrix(0.0087890625,0,0,0.0087890625,22.3505859375,0)" xlink:href="#V"/><use transform="matrix(0.0087890625,0,0,0.0087890625,28.23046875,0)" xlink:href="#ai"/><use transform="matrix(0.0087890625,0,0,0.0087890625,38.1533203125,0)" xlink:href="#Y"/><use transform="matrix(0.0087890625,0,0,0.0087890625,47.9443359375,0)" xlink:href="#Z"/></g><path fill="#333" d="M1216-1011c-1 297-202 441-512 441H361V0H169v-1456h537c297-6 510 164 510 445zm-192 2c1-178-126-288-307-289H361v571h345c196 1 318-92 318-282" id="aj"/><path fill="#333" d="M497-251l268-831h189L566 0H425L33-1082h189" id="ak"/><g id="f"><use transform="matrix(0.0087890625,0,0,0.0087890625,0,0)" xlink:href="#aj"/><use transform="matrix(0.0087890625,0,0,0.0087890625,11.35546875,0)" xlink:href="#X"/><use transform="matrix(0.0087890625,0,0,0.0087890625,17.4462890625,0)" xlink:href="#ah"/><use transform="matrix(0.0087890625,0,0,0.0087890625,21.814453125,0)" xlink:href="#ak"/><use transform="matrix(0.0087890625,0,0,0.0087890625,30.4013671875,0)" xlink:href="#Y"/><use transform="matrix(0.0087890625,0,0,0.0087890625,40.1923828125,0)" xlink:href="#V"/><use transform="matrix(0.0087890625,0,0,0.0087890625,46.072265625,0)" xlink:href="#W"/></g><path fill="#333" d="M688-137c238 0 323-102 359-325h193c-32 297-228 482-552 482-361 0-569-299-569-680 0-197 8-360 73-497 88-186 257-317 513-319 316-2 509 195 535 488h-193c-31-212-118-330-342-330-272 0-397 224-393 523v141c-3 282 115 517 376 517" id="al"/><path fill="#333" d="M584 20C278 26 81-227 91-551c10-320 175-545 491-551 308-5 503 247 494 573-9 322-175 543-492 549zm-2-970c-208 0-305 185-305 421 0 216 106 398 307 398 211 0 307-186 307-420 0-214-109-399-309-399" id="am"/><g id="g"><use transform="matrix(0.0087890625,0,0,0.0087890625,0,0)" xlink:href="#al"/><use transform="matrix(0.0087890625,0,0,0.0087890625,11.7158203125,0)" xlink:href="#Z"/><use transform="matrix(0.0087890625,0,0,0.0087890625,16.083984375,0)" xlink:href="#am"/><use transform="matrix(0.0087890625,0,0,0.0087890625,26.349609375,0)" xlink:href="#ai"/><use transform="matrix(0.0087890625,0,0,0.0087890625,36.2724609375,0)" xlink:href="#ad"/></g><path fill="#333" d="M1288 0h-193v-673H361V0H169v-1456h192v626h734v-626h193V0" id="an"/><path fill="#333" d="M277-555c0 244 77 420 297 424 127 2 249-93 255-210h175C980-127 805 20 574 20 258 20 81-222 92-562c11-319 164-533 481-540 237-5 426 165 431 392H829c-7-133-115-242-256-240-209 4-296 166-296 395" id="ao"/><g id="h"><use transform="matrix(0.0087890625,0,0,0.0087890625,0,0)" xlink:href="#an"/><use transform="matrix(0.0087890625,0,0,0.0087890625,12.83203125,0)" xlink:href="#ah"/><use transform="matrix(0.0087890625,0,0,0.0087890625,17.2001953125,0)" xlink:href="#af"/><use transform="matrix(0.0087890625,0,0,0.0087890625,26.4814453125,0)" xlink:href="#V"/><use transform="matrix(0.0087890625,0,0,0.0087890625,32.185546875,0)" xlink:href="#am"/><use transform="matrix(0.0087890625,0,0,0.0087890625,42.451171875,0)" xlink:href="#X"/><use transform="matrix(0.0087890625,0,0,0.0087890625,48.5419921875,0)" xlink:href="#ah"/><use transform="matrix(0.0087890625,0,0,0.0087890625,52.91015625,0)" xlink:href="#ao"/></g><path fill="#333" d="M1222-777c17 480-206 763-650 777H169v-1456h411c408 9 627 269 642 679zm-190 4c3-312-149-522-447-525H361v1141h202c308 0 473-209 469-531v-85" id="ap"/><g id="i"><use transform="matrix(0.0087890625,0,0,0.0087890625,0,0)" xlink:href="#ap"/><use transform="matrix(0.0087890625,0,0,0.0087890625,11.8037109375,0)" xlink:href="#Y"/><use transform="matrix(0.0087890625,0,0,0.0087890625,21.5947265625,0)" xlink:href="#V"/><use transform="matrix(0.0087890625,0,0,0.0087890625,27.474609375,0)" xlink:href="#Y"/></g><path fill="#333" d="M362-157h690V0H169v-1456h193v1299" id="aq"/><g id="j"><use transform="matrix(0.0087890625,0,0,0.0087890625,0,0)" xlink:href="#aq"/><use transform="matrix(0.0087890625,0,0,0.0087890625,9.685546875,0)" xlink:href="#am"/><use transform="matrix(0.0087890625,0,0,0.0087890625,19.951171875,0)" xlink:href="#Y"/><use transform="matrix(0.0087890625,0,0,0.0087890625,29.7421875,0)" xlink:href="#ad"/></g><path fill="#333" d="M1160-420C1159-145 963 0 674 0H169v-1456h476c294-1 476 112 476 388 0 153-99 253-216 302 146 38 255 167 255 346zM678-157c171 2 289-95 289-261 0-175-95-263-286-263H361v524h317zm250-912c-2-172-104-229-283-229H361v463h290c157 3 278-84 277-234" id="ar"/><path fill="#333" d="M442-501L326-380V0H141v-1536h185v929c135-169 291-317 436-475h225L566-630 1036 0H819" id="as"/><path fill="#333" d="M248 11c-71 0-114-43-114-108 0-67 42-112 114-112s116 45 116 112c-1 65-45 108-116 108zm1-883c-71 0-114-43-114-108 0-67 42-112 114-112s116 45 116 112c-1 65-45 108-116 108" id="at"/><g id="k"><use transform="matrix(0.0087890625,0,0,0.0087890625,0,0)" xlink:href="#ar"/><use transform="matrix(0.0087890625,0,0,0.0087890625,11.2060546875,0)" xlink:href="#ai"/><use transform="matrix(0.0087890625,0,0,0.0087890625,21.12890625,0)" xlink:href="#ao"/><use transform="matrix(0.0087890625,0,0,0.0087890625,30.55078125,0)" xlink:href="#as"/><use transform="matrix(0.0087890625,0,0,0.0087890625,39.498046875,0)" xlink:href="#W"/><use transform="matrix(0.0087890625,0,0,0.0087890625,49.0341796875,0)" xlink:href="#V"/><use transform="matrix(0.0087890625,0,0,0.0087890625,54.9140625,0)" xlink:href="#at"/></g><path fill="#333" d="M631-137c179 0 314-70 314-231 0-71-25-127-75-166s-141-77-272-115c-165-47-285-106-360-175s-112-154-112-255c0-245 231-397 495-397 206 0 369 89 449 218 43 68 65 142 65 223H942c0-184-129-283-321-283-172 0-299 76-301 236 0 59 26 109 76 150s135 78 256 113c205 59 345 116 436 256 35 53 50 119 50 193-2 256-231 398-507 390C333 12 90-129 80-422h193c0 187 160 285 358 285" id="au"/><g id="l"><use transform="matrix(0.0087890625,0,0,0.0087890625,0,0)" xlink:href="#al"/><use transform="matrix(0.0087890625,0,0,0.0087890625,11.7158203125,0)" xlink:href="#au"/><use transform="matrix(0.0087890625,0,0,0.0087890625,22.39453125,0)" xlink:href="#ag"/></g><path fill="#333" d="M704-1390c-164-38-297 28-288 194v114h231v143H416V0H231v-939H60v-143h171v-111c-12-274 208-416 483-347" id="av"/><g id="m"><use transform="matrix(0.0087890625,0,0,0.0087890625,0,0)" xlink:href="#av"/><use transform="matrix(0.0087890625,0,0,0.0087890625,6.2490234375,0)" xlink:href="#ah"/><use transform="matrix(0.0087890625,0,0,0.0087890625,10.6171875,0)" xlink:href="#Z"/><use transform="matrix(0.0087890625,0,0,0.0087890625,14.9853515625,0)" xlink:href="#W"/><use transform="matrix(0.0087890625,0,0,0.0087890625,24.521484375,0)" xlink:href="#af"/></g><path fill="#333" d="M632-1102c291 0 422 251 422 573 0 297-141 548-419 549-131 0-235-42-310-125v521H140v-1498h169l9 120c75-93 180-140 314-140zm-53 971c207 0 290-180 290-419 0-218-92-395-292-395-112 0-196 50-252 149v517c55 99 140 148 254 148" id="aw"/><g id="n"><use transform="matrix(0.0087890625,0,0,0.0087890625,0,0)" xlink:href="#ap"/><use transform="matrix(0.0087890625,0,0,0.0087890625,11.8037109375,0)" xlink:href="#Y"/><use transform="matrix(0.0087890625,0,0,0.0087890625,21.5947265625,0)" xlink:href="#V"/><use transform="matrix(0.0087890625,0,0,0.0087890625,27.474609375,0)" xlink:href="#Y"/><use transform="matrix(0.0087890625,0,0,0.0087890625,37.265625,0)" xlink:href="#aw"/><use transform="matrix(0.0087890625,0,0,0.0087890625,47.3642578125,0)" xlink:href="#X"/><use transform="matrix(0.0087890625,0,0,0.0087890625,53.279296875,0)" xlink:href="#am"/><use transform="matrix(0.0087890625,0,0,0.0087890625,63.544921875,0)" xlink:href="#ao"/></g><g id="o"><use transform="matrix(0.0087890625,0,0,0.0087890625,0,0)" xlink:href="#ao"/><use transform="matrix(0.0087890625,0,0,0.0087890625,9.421875,0)" xlink:href="#Z"/><use transform="matrix(0.0087890625,0,0,0.0087890625,13.7900390625,0)" xlink:href="#ai"/><use transform="matrix(0.0087890625,0,0,0.0087890625,23.712890625,0)" xlink:href="#af"/><use transform="matrix(0.0087890625,0,0,0.0087890625,32.994140625,0)" xlink:href="#V"/><use transform="matrix(0.0087890625,0,0,0.0087890625,38.8740234375,0)" xlink:href="#W"/><use transform="matrix(0.0087890625,0,0,0.0087890625,48.41015625,0)" xlink:href="#X"/></g><path fill="#333" d="M572 20C306 25 99-136 101-391c0-70 20-134 59-193s113-127 223-205c-65-79-108-142-130-190s-33-96-33-143c-3-220 144-354 364-354 187 0 349 127 346 308-3 212-172 290-307 398l324 387c45-87 68-183 68-289h167c0 170-41 311-123 423L1267 0h-222l-97-115C862-36 726 17 572 20zM286-391c0 162 118 260 286 260 98 0 188-37 269-112L486-668c-110 72-200 183-200 277zm297-933c-109 0-180 87-178 196 0 64 39 144 118 240 93-79 236-119 236-280 0-91-82-156-176-156" id="ax"/><use transform="matrix(0.0087890625,0,0,0.0087890625,0,0)" xlink:href="#ax" id="p"/><g id="q"><use transform="matrix(0.0087890625,0,0,0.0087890625,0,0)" xlink:href="#au"/><use transform="matrix(0.0087890625,0,0,0.0087890625,10.6787109375,0)" xlink:href="#aw"/><use transform="matrix(0.0087890625,0,0,0.0087890625,20.77734375,0)" xlink:href="#Y"/><use transform="matrix(0.0087890625,0,0,0.0087890625,30.568359375,0)" xlink:href="#X"/><use transform="matrix(0.0087890625,0,0,0.0087890625,36.6591796875,0)" xlink:href="#as"/></g><path fill="#333" d="M512-137c164 0 267-115 267-285v-1034h193v1031c4 276-186 445-460 445C234 20 52-130 53-402h192c0 167 97 265 267 265" id="ay"/><path fill="#333" d="M634-1102c292 0 422 254 422 573 0 298-143 547-420 549-137 0-242-48-317-145L310 0H140v-1536h185v573c75-93 178-139 309-139zm-44 965c207 0 281-175 281-413 0-224-79-395-283-395-122 0-210 57-263 170v468c57 113 145 170 265 170" id="az"/><g id="r"><use transform="matrix(0.0087890625,0,0,0.0087890625,0,0)" xlink:href="#ay"/><use transform="matrix(0.0087890625,0,0,0.0087890625,9.931640625,0)" xlink:href="#am"/><use transform="matrix(0.0087890625,0,0,0.0087890625,20.197265625,0)" xlink:href="#az"/><use transform="matrix(0.0087890625,0,0,0.0087890625,30.2958984375,0)" xlink:href="#af"/></g><g id="s"><use transform="matrix(0.0087890625,0,0,0.0087890625,0,0)" xlink:href="#ap"/><use transform="matrix(0.0087890625,0,0,0.0087890625,11.8037109375,0)" xlink:href="#Y"/><use transform="matrix(0.0087890625,0,0,0.0087890625,21.5947265625,0)" xlink:href="#V"/><use transform="matrix(0.0087890625,0,0,0.0087890625,27.474609375,0)" xlink:href="#Y"/></g><path fill="#333" d="M417-1456L893-268l476-1188h249V0h-192c-4-403 4-794 18-1179L966 0H819L342-1176c15 384 23 773 19 1176H169v-1456h248" id="aA"/><g id="t"><use transform="matrix(0.0087890625,0,0,0.0087890625,0,0)" xlink:href="#aA"/><use transform="matrix(0.0087890625,0,0,0.0087890625,15.71484375,0)" xlink:href="#am"/><use transform="matrix(0.0087890625,0,0,0.0087890625,25.98046875,0)" xlink:href="#ad"/><use transform="matrix(0.0087890625,0,0,0.0087890625,36.1318359375,0)" xlink:href="#W"/><use transform="matrix(0.0087890625,0,0,0.0087890625,45.66796875,0)" xlink:href="#Z"/></g><path fill="#333" d="M589-945c-131 0-219 81-264 174V0H140v-1536h185v585c82-101 189-151 320-151 229 0 346 129 346 387V0H806v-716c-2-153-65-229-217-229" id="aB"/><g id="u"><use transform="matrix(0.0087890625,0,0,0.0087890625,0,0)" xlink:href="#ap"/><use transform="matrix(0.0087890625,0,0,0.0087890625,11.8037109375,0)" xlink:href="#Y"/><use transform="matrix(0.0087890625,0,0,0.0087890625,21.5947265625,0)" xlink:href="#af"/><use transform="matrix(0.0087890625,0,0,0.0087890625,30.8759765625,0)" xlink:href="#aB"/><use transform="matrix(0.0087890625,0,0,0.0087890625,40.7900390625,0)" xlink:href="#az"/><use transform="matrix(0.0087890625,0,0,0.0087890625,50.888671875,0)" xlink:href="#am"/><use transform="matrix(0.0087890625,0,0,0.0087890625,61.154296875,0)" xlink:href="#Y"/><use transform="matrix(0.0087890625,0,0,0.0087890625,70.9453125,0)" xlink:href="#X"/><use transform="matrix(0.0087890625,0,0,0.0087890625,76.869140625,0)" xlink:href="#ad"/><use transform="matrix(0.0087890625,0,0,0.0087890625,87.0205078125,0)" xlink:href="#af"/></g><path fill="#333" d="M1288 0h-193L362-1122V0H169v-1456h193l735 1127v-1127h191V0" id="aC"/><path fill="#333" d="M1098-255l208-827h185L1176 0h-150L763-820 507 0H357L43-1082h184l213 810 252-810h149" id="aD"/><g id="v"><use transform="matrix(0.0087890625,0,0,0.0087890625,0,0)" xlink:href="#aC"/><use transform="matrix(0.0087890625,0,0,0.0087890625,12.83203125,0)" xlink:href="#W"/><use transform="matrix(0.0087890625,0,0,0.0087890625,22.3681640625,0)" xlink:href="#aD"/></g><path fill="#333" d="M973-380H363L226 0H28l556-1456h168L1309 0h-197zM421-538h495l-248-681" id="aE"/><g id="w"><use transform="matrix(0.0087890625,0,0,0.0087890625,0,0)" xlink:href="#aE"/><use transform="matrix(0.0087890625,0,0,0.0087890625,11.7421875,0)" xlink:href="#aj"/><use transform="matrix(0.0087890625,0,0,0.0087890625,23.09765625,0)" xlink:href="#T"/></g><path fill="#333" d="M972-643H361V0H169v-1456h902v158H361v498h611v157" id="aF"/><g id="x"><use transform="matrix(0.0087890625,0,0,0.0087890625,0,0)" xlink:href="#aF"/><use transform="matrix(0.0087890625,0,0,0.0087890625,9.650390625,0)" xlink:href="#Y"/><use transform="matrix(0.0087890625,0,0,0.0087890625,19.44140625,0)" xlink:href="#af"/><use transform="matrix(0.0087890625,0,0,0.0087890625,28.72265625,0)" xlink:href="#V"/></g><g id="y"><use transform="matrix(0.0087890625,0,0,0.0087890625,0,0)" xlink:href="#aE"/><use transform="matrix(0.0087890625,0,0,0.0087890625,11.7421875,0)" xlink:href="#aj"/><use transform="matrix(0.0087890625,0,0,0.0087890625,23.09765625,0)" xlink:href="#T"/></g><g id="z"><use transform="matrix(0.0087890625,0,0,0.0087890625,0,0)" xlink:href="#ar"/><use transform="matrix(0.0087890625,0,0,0.0087890625,11.2060546875,0)" xlink:href="#Y"/><use transform="matrix(0.0087890625,0,0,0.0087890625,20.9970703125,0)" xlink:href="#ao"/><use transform="matrix(0.0087890625,0,0,0.0087890625,30.4189453125,0)" xlink:href="#as"/><use transform="matrix(0.0087890625,0,0,0.0087890625,39.5419921875,0)" xlink:href="#ai"/><use transform="matrix(0.0087890625,0,0,0.0087890625,49.46484375,0)" xlink:href="#aw"/></g><use transform="matrix(0.0087890625,0,0,0.0087890625,0,0)" xlink:href="#aa" id="A"/><path fill="#333" d="M1161-1018c0 201-122 330-278 388l342 618V0h-206L703-589H361V0H168v-1456h482c310-2 511 139 511 438zm-193 0c0-187-120-280-313-280H361v552h295c179 3 313-101 312-272" id="aG"/><g id="B"><use transform="matrix(0.0087890625,0,0,0.0087890625,0,0)" xlink:href="#aG"/><use transform="matrix(0.0087890625,0,0,0.0087890625,11.0830078125,0)" xlink:href="#W"/><use transform="matrix(0.0087890625,0,0,0.0087890625,20.619140625,0)" xlink:href="#af"/><use transform="matrix(0.0087890625,0,0,0.0087890625,29.900390625,0)" xlink:href="#V"/><use transform="matrix(0.0087890625,0,0,0.0087890625,35.6044921875,0)" xlink:href="#am"/><use transform="matrix(0.0087890625,0,0,0.0087890625,45.8701171875,0)" xlink:href="#X"/><use transform="matrix(0.0087890625,0,0,0.0087890625,51.7939453125,0)" xlink:href="#W"/></g><g id="C"><use transform="matrix(0.0087890625,0,0,0.0087890625,0,0)" xlink:href="#aF"/><use transform="matrix(0.0087890625,0,0,0.0087890625,9.7646484375,0)" xlink:href="#W"/><use transform="matrix(0.0087890625,0,0,0.0087890625,19.30078125,0)" xlink:href="#Y"/><use transform="matrix(0.0087890625,0,0,0.0087890625,29.091796875,0)" xlink:href="#V"/><use transform="matrix(0.0087890625,0,0,0.0087890625,34.9716796875,0)" xlink:href="#ai"/><use transform="matrix(0.0087890625,0,0,0.0087890625,44.89453125,0)" xlink:href="#X"/><use transform="matrix(0.0087890625,0,0,0.0087890625,50.818359375,0)" xlink:href="#W"/><use transform="matrix(0.0087890625,0,0,0.0087890625,60.3544921875,0)" xlink:href="#af"/></g><filter id="D" filterUnits="objectBoundingBox" x="-.02" y="-.01" width="1.03" height="1.03"><feOffset result="offOut" in="SourceAlpha" dy="1"/><feGaussianBlur result="blurOut" in="offOut" stdDeviation=".75"/><feColorMatrix result="colorOut" in="blurOut" values="0 0 0 0 0 0 0 0 0 0 0 0 0 0 0 0 0 0 0.4 0"/><feBlend in="SourceGraphic" in2="colorOut"/></filter><path fill="#3a414a" d="M212-179c-10-28-35-45-73-45-59 0-87 40-87 99 0 60 29 101 89 101 43 0 62-24 78-52l27 14C228-24 195 4 139 4 59 4 22-46 18-125c-6-104 99-153 187-111 19 9 31 26 39 46" id="aH"/><path fill="#3a414a" d="M24 0v-261h32V0H24" id="aI"/><path fill="#3a414a" d="M100-194c62-1 85 37 85 99 1 63-27 99-86 99S16-35 15-95c0-66 28-99 85-99zM99-20c44 1 53-31 53-75 0-43-8-75-51-75s-53 32-53 75 10 74 51 75" id="aJ"/><path fill="#3a414a" d="M84 4C-5 8 30-112 23-190h32v120c0 31 7 50 39 49 72-2 45-101 50-169h31l1 190h-30c-1-10 1-25-2-33-11 22-28 36-60 37" id="aK"/><path fill="#3a414a" d="M85-194c31 0 48 13 60 33l-1-100h32l1 261h-30c-2-10 0-23-3-31C134-8 116 4 85 4 32 4 16-35 15-94c0-66 23-100 70-100zm9 24c-40 0-46 34-46 75 0 40 6 74 45 74 42 0 51-32 51-76 0-42-9-74-50-73" id="aL"/><g id="E"><use transform="matrix(0.06172839506172839,0,0,0.06172839506172839,0,0)" xlink:href="#aH"/><use transform="matrix(0.06172839506172839,0,0,0.06172839506172839,15.987654320987653,0)" xlink:href="#aI"/><use transform="matrix(0.06172839506172839,0,0,0.06172839506172839,20.864197530864196,0)" xlink:href="#aJ"/><use transform="matrix(0.06172839506172839,0,0,0.06172839506172839,33.20987654320987,0)" xlink:href="#aK"/><use transform="matrix(0.06172839506172839,0,0,0.06172839506172839,45.55555555555555,0)" xlink:href="#aL"/></g><path fill="#3a414a" d="M185-189c-5-48-123-54-124 2 14 75 158 14 163 119 3 78-121 87-175 55-17-10-28-26-33-46l33-7c5 56 141 63 141-1 0-78-155-14-162-118-5-82 145-84 179-34 5 7 8 16 11 25" id="aM"/><path fill="#3a414a" d="M59-47c-2 24 18 29 38 22v24C64 9 27 4 27-40v-127H5v-23h24l9-43h21v43h35v23H59v120" id="aN"/><path fill="#3a414a" d="M114-163C36-179 61-72 57 0H25l-1-190h30c1 12-1 29 2 39 6-27 23-49 58-41v29" id="aO"/><path fill="#3a414a" d="M141-36C126-15 110 5 73 4 37 3 15-17 15-53c-1-64 63-63 125-63 3-35-9-54-41-54-24 1-41 7-42 31l-33-3c5-37 33-52 76-52 45 0 72 20 72 64v82c-1 20 7 32 28 27v20c-31 9-61-2-59-35zM48-53c0 20 12 33 32 33 41-3 63-29 60-74-43 2-92-5-92 41" id="aP"/><path fill="#3a414a" d="M177-190C167-65 218 103 67 71c-23-6-38-20-44-43l32-5c15 47 100 32 89-28v-30C133-14 115 1 83 1 29 1 15-40 15-95c0-56 16-97 71-98 29-1 48 16 59 35 1-10 0-23 2-32h30zM94-22c36 0 50-32 50-73 0-42-14-75-50-75-39 0-46 34-46 75s6 73 46 73" id="aQ"/><path fill="#3a414a" d="M100-194c63 0 86 42 84 106H49c0 40 14 67 53 68 26 1 43-12 49-29l28 8c-11 28-37 45-77 45C44 4 14-33 15-96c1-61 26-98 85-98zm52 81c6-60-76-77-97-28-3 7-6 17-6 28h103" id="aR"/><g id="F"><use transform="matrix(0.06172839506172839,0,0,0.06172839506172839,0,0)" xlink:href="#aM"/><use transform="matrix(0.06172839506172839,0,0,0.06172839506172839,14.814814814814813,0)" xlink:href="#aN"/><use transform="matrix(0.06172839506172839,0,0,0.06172839506172839,20.98765432098765,0)" xlink:href="#aJ"/><use transform="matrix(0.06172839506172839,0,0,0.06172839506172839,33.33333333333333,0)" xlink:href="#aO"/><use transform="matrix(0.06172839506172839,0,0,0.06172839506172839,40.679012345679006,0)" xlink:href="#aP"/><use transform="matrix(0.06172839506172839,0,0,0.06172839506172839,53.02469135802468,0)" xlink:href="#aQ"/><use transform="matrix(0.06172839506172839,0,0,0.06172839506172839,65.37037037037037,0)" xlink:href="#aR"/></g><path fill="#3a414a" d="M30-248c118-7 216 8 213 122C240-48 200 0 122 0H30v-248zM63-27c89 8 146-16 146-99s-60-101-146-95v194" id="aS"/><path fill="#3a414a" d="M115-194c55 1 70 41 70 98S169 2 115 4C84 4 66-9 55-30l1 105H24l-1-265h31l2 30c10-21 28-34 59-34zm-8 174c40 0 45-34 45-75s-6-73-45-74c-42 0-51 32-51 76 0 43 10 73 51 73" id="aT"/><path fill="#3a414a" d="M96-169c-40 0-48 33-48 73s9 75 48 75c24 0 41-14 43-38l32 2c-6 37-31 61-74 61-59 0-76-41-82-99-10-93 101-131 147-64 4 7 5 14 7 22l-32 3c-4-21-16-35-41-35" id="aU"/><g id="G"><use transform="matrix(0.06172839506172839,0,0,0.06172839506172839,0,0)" xlink:href="#aS"/><use transform="matrix(0.06172839506172839,0,0,0.06172839506172839,15.987654320987653,0)" xlink:href="#aP"/><use transform="matrix(0.06172839506172839,0,0,0.06172839506172839,28.333333333333332,0)" xlink:href="#aN"/><use transform="matrix(0.06172839506172839,0,0,0.06172839506172839,34.50617283950617,0)" xlink:href="#aP"/><use transform="matrix(0.06172839506172839,0,0,0.06172839506172839,46.85185185185185,0)" xlink:href="#aT"/><use transform="matrix(0.06172839506172839,0,0,0.06172839506172839,59.197530864197525,0)" xlink:href="#aO"/><use transform="matrix(0.06172839506172839,0,0,0.06172839506172839,66.5432098765432,0)" xlink:href="#aJ"/><use transform="matrix(0.06172839506172839,0,0,0.06172839506172839,78.88888888888889,0)" xlink:href="#aU"/></g><path fill="#3a414a" d="M160-131c35 5 61 23 61 61C221 17 115-2 30 0v-248c76 3 177-17 177 60 0 33-19 50-47 57zm-97-11c50-1 110 9 110-42 0-47-63-36-110-37v79zm0 115c55-2 124 14 124-45 0-56-70-42-124-44v89" id="aV"/><path fill="#3a414a" d="M24-231v-30h32v30H24zM24 0v-190h32V0H24" id="aW"/><path fill="#3a414a" d="M145-31C134-9 116 4 85 4 32 4 16-35 15-94c0-59 17-99 70-100 32-1 48 14 60 33 0-11-1-24 2-32h30l-1 268h-32zM93-21c41 0 51-33 51-76s-8-73-50-73c-40 0-46 35-46 75s5 74 45 74" id="aX"/><path fill="#3a414a" d="M179-190L93 31C79 59 56 82 12 73V49c39 6 53-20 64-50L1-190h34L92-34l54-156h33" id="aY"/><g id="H"><use transform="matrix(0.06172839506172839,0,0,0.06172839506172839,0,0)" xlink:href="#aV"/><use transform="matrix(0.06172839506172839,0,0,0.06172839506172839,14.814814814814813,0)" xlink:href="#aW"/><use transform="matrix(0.06172839506172839,0,0,0.06172839506172839,19.691358024691354,0)" xlink:href="#aQ"/><use transform="matrix(0.06172839506172839,0,0,0.06172839506172839,32.03703703703703,0)" xlink:href="#aX"/><use transform="matrix(0.06172839506172839,0,0,0.06172839506172839,44.38271604938271,0)" xlink:href="#aK"/><use transform="matrix(0.06172839506172839,0,0,0.06172839506172839,56.728395061728385,0)" xlink:href="#aR"/><use transform="matrix(0.06172839506172839,0,0,0.06172839506172839,69.07407407407406,0)" xlink:href="#aO"/><use transform="matrix(0.06172839506172839,0,0,0.06172839506172839,76.41975308641975,0)" xlink:href="#aY"/></g><path fill="#3a414a" d="M30 0v-248h33v221h125V0H30" id="aZ"/><path fill="#3a414a" d="M143 0L79-87 56-68V0H24v-261h32v163l83-92h37l-77 82L181 0h-38" id="ba"/><g id="I"><use transform="matrix(0.06172839506172839,0,0,0.06172839506172839,0,0)" xlink:href="#aZ"/><use transform="matrix(0.06172839506172839,0,0,0.06172839506172839,12.345679012345679,0)" xlink:href="#aJ"/><use transform="matrix(0.06172839506172839,0,0,0.06172839506172839,24.691358024691358,0)" xlink:href="#aJ"/><use transform="matrix(0.06172839506172839,0,0,0.06172839506172839,37.03703703703704,0)" xlink:href="#ba"/><use transform="matrix(0.06172839506172839,0,0,0.06172839506172839,48.14814814814815,0)" xlink:href="#aR"/><use transform="matrix(0.06172839506172839,0,0,0.06172839506172839,60.49382716049383,0)" xlink:href="#aO"/></g><path fill="#3a414a" d="M205 0l-28-72H64L36 0H1l101-248h38L239 0h-34zm-38-99l-47-123c-12 45-31 82-46 123h93" id="bb"/><g id="J"><use transform="matrix(0.06172839506172839,0,0,0.06172839506172839,0,0)" xlink:href="#bb"/><use transform="matrix(0.06172839506172839,0,0,0.06172839506172839,14.814814814814813,0)" xlink:href="#aT"/><use transform="matrix(0.06172839506172839,0,0,0.06172839506172839,27.160493827160494,0)" xlink:href="#aT"/></g><path fill="#3a414a" d="M30 0v-248h187v28H63v79h144v27H63v87h162V0H30" id="bc"/><path fill="#3a414a" d="M117-194c89-4 53 116 60 194h-32v-121c0-31-8-49-39-48C34-167 62-67 57 0H25l-1-190h30c1 10-1 24 2 32 11-22 29-35 61-36" id="bd"/><g id="K"><use transform="matrix(0.06172839506172839,0,0,0.06172839506172839,0,0)" xlink:href="#bc"/><use transform="matrix(0.06172839506172839,0,0,0.06172839506172839,14.814814814814813,0)" xlink:href="#bd"/><use transform="matrix(0.06172839506172839,0,0,0.06172839506172839,27.160493827160494,0)" xlink:href="#aQ"/><use transform="matrix(0.06172839506172839,0,0,0.06172839506172839,39.50617283950617,0)" xlink:href="#aW"/><use transform="matrix(0.06172839506172839,0,0,0.06172839506172839,44.382716049382715,0)" xlink:href="#bd"/><use transform="matrix(0.06172839506172839,0,0,0.06172839506172839,56.72839506172839,0)" xlink:href="#aR"/></g><g id="L"><use transform="matrix(0.06172839506172839,0,0,0.06172839506172839,0,0)" xlink:href="#aH"/><use transform="matrix(0.06172839506172839,0,0,0.06172839506172839,15.987654320987653,0)" xlink:href="#aI"/><use transform="matrix(0.06172839506172839,0,0,0.06172839506172839,20.864197530864196,0)" xlink:href="#aJ"/><use transform="matrix(0.06172839506172839,0,0,0.06172839506172839,33.20987654320987,0)" xlink:href="#aK"/><use transform="matrix(0.06172839506172839,0,0,0.06172839506172839,45.55555555555555,0)" xlink:href="#aL"/></g><path fill="#3a414a" d="M30-248c87 1 191-15 191 75 0 78-77 80-158 76V0H30v-248zm33 125c57 0 124 11 124-50 0-59-68-47-124-48v98" id="be"/><path fill="#3a414a" d="M33 0v-248h34V0H33" id="bf"/><g id="M"><use transform="matrix(0.06172839506172839,0,0,0.06172839506172839,0,0)" xlink:href="#bb"/><use transform="matrix(0.06172839506172839,0,0,0.06172839506172839,14.814814814814813,0)" xlink:href="#be"/><use transform="matrix(0.06172839506172839,0,0,0.06172839506172839,29.629629629629626,0)" xlink:href="#bf"/></g><path fill="#3a414a" d="M143 4C61 4 22-44 18-125c-5-107 100-154 193-111 17 8 29 25 37 43l-32 9c-13-25-37-40-76-40-61 0-88 39-88 99 0 61 29 100 91 101 35 0 62-11 79-27v-45h-74v-28h105v86C228-13 192 4 143 4" id="bg"/><path fill="#3a414a" d="M206 0h-36l-40-164L89 0H53L-1-190h32L70-26l43-164h34l41 164 42-164h31" id="bh"/><g id="N"><use transform="matrix(0.06172839506172839,0,0,0.06172839506172839,0,0)" xlink:href="#bg"/><use transform="matrix(0.06172839506172839,0,0,0.06172839506172839,17.28395061728395,0)" xlink:href="#aP"/><use transform="matrix(0.06172839506172839,0,0,0.06172839506172839,29.629629629629626,0)" xlink:href="#aN"/><use transform="matrix(0.06172839506172839,0,0,0.06172839506172839,35.80246913580247,0)" xlink:href="#aR"/><use transform="matrix(0.06172839506172839,0,0,0.06172839506172839,48.148148148148145,0)" xlink:href="#bh"/><use transform="matrix(0.06172839506172839,0,0,0.06172839506172839,64.1358024691358,0)" xlink:href="#aP"/><use transform="matrix(0.06172839506172839,0,0,0.06172839506172839,76.48148148148148,0)" xlink:href="#aY"/></g><g id="O"><use transform="matrix(0.06172839506172839,0,0,0.06172839506172839,0,0)" xlink:href="#aM"/><use transform="matrix(0.06172839506172839,0,0,0.06172839506172839,14.814814814814813,0)" xlink:href="#aR"/><use transform="matrix(0.06172839506172839,0,0,0.06172839506172839,27.160493827160494,0)" xlink:href="#aU"/><use transform="matrix(0.06172839506172839,0,0,0.06172839506172839,38.27160493827161,0)" xlink:href="#aO"/><use transform="matrix(0.06172839506172839,0,0,0.06172839506172839,45.617283950617285,0)" xlink:href="#aR"/><use transform="matrix(0.06172839506172839,0,0,0.06172839506172839,57.96296296296296,0)" xlink:href="#aN"/></g><path fill="#3a414a" d="M240 0l2-218c-23 76-54 145-80 218h-23L58-218 59 0H30v-248h44l77 211c21-75 51-140 76-211h43V0h-30" id="bi"/><g id="P"><use transform="matrix(0.06172839506172839,0,0,0.06172839506172839,0,0)" xlink:href="#bi"/><use transform="matrix(0.06172839506172839,0,0,0.06172839506172839,18.456790123456788,0)" xlink:href="#aP"/><use transform="matrix(0.06172839506172839,0,0,0.06172839506172839,30.80246913580247,0)" xlink:href="#bd"/><use transform="matrix(0.06172839506172839,0,0,0.06172839506172839,43.148148148148145,0)" xlink:href="#aP"/><use transform="matrix(0.06172839506172839,0,0,0.06172839506172839,55.49382716049382,0)" xlink:href="#aQ"/><use transform="matrix(0.06172839506172839,0,0,0.06172839506172839,67.8395061728395,0)" xlink:href="#aR"/><use transform="matrix(0.06172839506172839,0,0,0.06172839506172839,80.18518518518519,0)" xlink:href="#aO"/></g><g id="Q"><use transform="matrix(0.06172839506172839,0,0,0.06172839506172839,0,0)" xlink:href="#aH"/><use transform="matrix(0.06172839506172839,0,0,0.06172839506172839,15.987654320987653,0)" xlink:href="#aI"/><use transform="matrix(0.06172839506172839,0,0,0.06172839506172839,20.864197530864196,0)" xlink:href="#aJ"/><use transform="matrix(0.06172839506172839,0,0,0.06172839506172839,33.20987654320987,0)" xlink:href="#aK"/><use transform="matrix(0.06172839506172839,0,0,0.06172839506172839,45.55555555555555,0)" xlink:href="#aL"/></g><path fill="#3a414a" d="M63-220v92h138v28H63V0H30v-248h175v28H63" id="bj"/><path fill="#3a414a" d="M135-143c-3-34-86-38-87 0 15 53 115 12 119 90S17 21 10-45l28-5c4 36 97 45 98 0-10-56-113-15-118-90-4-57 82-63 122-42 12 7 21 19 24 35" id="bk"/><g id="R"><use transform="matrix(0.06172839506172839,0,0,0.06172839506172839,0,0)" xlink:href="#bj"/><use transform="matrix(0.06172839506172839,0,0,0.06172839506172839,13.518518518518517,0)" xlink:href="#aK"/><use transform="matrix(0.06172839506172839,0,0,0.06172839506172839,25.864197530864196,0)" xlink:href="#bd"/><use transform="matrix(0.06172839506172839,0,0,0.06172839506172839,38.20987654320987,0)" xlink:href="#aU"/><use transform="matrix(0.06172839506172839,0,0,0.06172839506172839,49.32098765432099,0)" xlink:href="#aN"/><use transform="matrix(0.06172839506172839,0,0,0.06172839506172839,55.49382716049383,0)" xlink:href="#aW"/><use transform="matrix(0.06172839506172839,0,0,0.06172839506172839,60.370370370370374,0)" xlink:href="#aJ"/><use transform="matrix(0.06172839506172839,0,0,0.06172839506172839,72.71604938271605,0)" xlink:href="#bd"/><use transform="matrix(0.06172839506172839,0,0,0.06172839506172839,85.06172839506173,0)" xlink:href="#bk"/></g><path fill="#3a414a" d="M106-169C34-169 62-67 57 0H25v-261h32l-1 103c12-21 28-36 61-36 89 0 53 116 60 194h-32v-121c2-32-8-49-39-48" id="bl"/><g id="S"><use transform="matrix(0.06172839506172839,0,0,0.06172839506172839,0,0)" xlink:href="#aM"/><use transform="matrix(0.06172839506172839,0,0,0.06172839506172839,14.814814814814813,0)" xlink:href="#aU"/><use transform="matrix(0.06172839506172839,0,0,0.06172839506172839,25.925925925925924,0)" xlink:href="#bl"/><use transform="matrix(0.06172839506172839,0,0,0.06172839506172839,38.2716049382716,0)" xlink:href="#aR"/><use transform="matrix(0.06172839506172839,0,0,0.06172839506172839,50.61728395061728,0)" xlink:href="#aL"/><use transform="matrix(0.06172839506172839,0,0,0.06172839506172839,62.962962962962955,0)" xlink:href="#aK"/><use transform="matrix(0.06172839506172839,0,0,0.06172839506172839,75.30864197530863,0)" xlink:href="#aI"/><use transform="matrix(0.06172839506172839,0,0,0.06172839506172839,80.18518518518518,0)" xlink:href="#aR"/><use transform="matrix(0.06172839506172839,0,0,0.06172839506172839,92.53086419753086,0)" xlink:href="#aO"/></g></defs></g></svg>